<?xml version="1.0" standalone="no"?>
<!DOCTYPE svg PUBLIC "-//W3C//DTD SVG 20010904//EN"
 "http://www.w3.org/TR/2001/REC-SVG-20010904/DTD/svg10.dtd">
<svg version="1.0" xmlns="http://www.w3.org/2000/svg"
 width="852.000000pt" height="337.000000pt" viewBox="0 0 852.000000 337.000000"
 preserveAspectRatio="xMidYMid meet">

<g transform="translate(0.000000,337.000000) scale(0.100000,-0.100000)"
fill="#000000" stroke="none">
<path d="M0 2984 l0 -385 41 23 c58 32 77 60 84 126 23 198 70 315 170 421 73
77 135 114 226 136 71 16 223 19 284 5 22 -5 41 -7 43 -5 6 5 -61 40 -78 40
-8 1 -14 6 -12 13 1 9 -87 12 -378 12 l-380 0 0 -386z m349 362 c6 -4 9 -12 6
-17 -4 -5 0 -9 7 -10 7 0 0 -5 -15 -11 -57 -21 -157 14 -112 39 16 10 98 8
114 -1z m-159 -28 c-1 -31 -1 -32 -15 -14 -19 25 -19 46 0 46 10 0 15 -10 15
-32z"/>
<path d="M1125 3361 c3 -2 -5 -15 -17 -28 -12 -13 -17 -23 -11 -23 6 0 16 7
23 15 7 8 17 15 23 15 27 0 -46 -55 -73 -56 -17 -1 -54 -2 -82 -3 l-53 -2 74
-34 c102 -48 182 -108 279 -209 45 -47 82 -82 82 -77 0 4 -3 11 -7 15 -13 13
-9 42 6 44 9 1 38 5 64 9 l48 8 -51 38 c-29 21 -61 46 -72 55 -31 26 -102 121
-138 185 -30 53 -35 57 -66 55 -18 -1 -31 -4 -29 -7z"/>
<path d="M2436 3355 c4 -8 8 -15 10 -15 2 0 4 7 4 15 0 8 -4 15 -10 15 -5 0
-7 -7 -4 -15z"/>
<path d="M2969 3343 c-6 -16 -19 -50 -30 -78 -24 -65 -135 -282 -185 -364 -59
-95 -76 -105 -197 -111 -97 -5 -100 -6 -67 -18 20 -7 69 -47 115 -95 44 -45
92 -90 107 -100 16 -10 35 -32 44 -48 15 -29 14 -33 -15 -91 -17 -33 -31 -66
-31 -74 0 -8 -6 -14 -12 -14 -16 -1 -52 -76 -74 -155 -17 -60 -22 -76 -43
-128 -6 -15 -11 -46 -11 -68 0 -22 -5 -49 -11 -60 -6 -11 -11 -42 -12 -69 -2
-41 -6 -51 -29 -65 -16 -9 -28 -12 -28 -6 0 5 5 11 11 13 7 2 6 8 -4 16 -12
10 -14 7 -11 -23 1 -19 -1 -35 -4 -35 -4 0 -13 -9 -20 -20 -11 -19 -10 -20 30
-15 23 3 45 11 49 17 4 6 12 -16 19 -48 6 -32 21 -101 32 -152 11 -51 17 -100
14 -108 -3 -7 -31 -26 -63 -41 -48 -23 -71 -28 -133 -28 -65 1 -84 5 -138 33
-57 29 -63 31 -57 13 3 -11 1 -23 -6 -27 -8 -5 -9 -3 -4 5 11 19 -62 85 -83
75 -9 -4 -32 -9 -49 -12 -18 -2 -33 -7 -33 -11 0 -4 20 -22 45 -40 78 -56 137
-161 150 -266 l7 -56 23 54 c12 30 31 67 42 83 11 16 28 46 38 67 24 51 46 60
142 62 45 0 85 4 89 8 10 10 54 -41 54 -64 0 -10 4 -19 10 -19 13 0 1 58 -18
92 -13 22 -14 30 -4 40 9 9 12 7 12 -10 0 -12 10 -39 23 -60 13 -20 33 -58 44
-83 12 -25 29 -51 38 -59 16 -14 85 -115 85 -126 0 -2 18 -30 41 -60 22 -30
39 -61 36 -67 -8 -22 -103 -49 -145 -42 -36 6 -38 8 -50 58 -7 29 -12 67 -12
85 0 52 -31 196 -46 211 -11 13 -13 3 -8 -61 9 -122 -45 -289 -95 -296 -12 -2
-19 -8 -15 -13 3 -5 11 -7 17 -3 7 3 3 -2 -8 -11 -11 -9 -19 -23 -17 -31 2 -8
-2 -14 -8 -14 -5 0 -10 4 -10 8 0 13 -64 8 -78 -6 -7 -6 -24 -12 -38 -12 -17
0 -24 -5 -24 -20 0 -18 7 -20 83 -20 71 0 87 3 102 20 9 10 38 27 64 36 63 22
95 37 103 49 5 6 8 5 8 -2 0 -7 7 -13 15 -13 8 0 23 -4 33 -9 9 -5 30 -15 45
-22 15 -7 37 -29 49 -48 12 -20 25 -38 28 -41 19 -16 30 -109 35 -300 2 -118
7 -251 9 -295 l5 -80 -9 64 c-5 35 -12 66 -15 69 -6 6 2 -93 11 -136 3 -14 -1
-25 -11 -28 -8 -4 -15 -15 -15 -25 0 -15 7 -19 33 -19 31 0 35 3 46 42 26 86
119 211 205 276 16 12 27 24 25 25 -2 2 -31 18 -64 37 -33 18 -66 40 -73 49
-37 46 -61 93 -61 118 0 71 -17 211 -27 224 -6 8 -14 28 -18 44 -5 22 -4 26 4
15 5 -8 10 -23 10 -33 0 -10 14 -26 31 -35 19 -11 32 -28 36 -46 4 -18 18 -35
38 -47 17 -11 37 -29 42 -42 16 -35 113 -104 184 -133 52 -20 78 -25 138 -22
83 3 102 -10 51 -37 -46 -24 -28 -38 39 -30 74 9 101 31 158 126 85 143 146
203 264 260 207 100 462 40 663 -158 95 -94 161 -198 201 -319 17 -52 34 -96
37 -100 3 -3 25 20 49 52 44 56 167 204 288 345 35 41 123 132 195 202 l131
129 -108 -71 c-148 -97 -142 -97 -376 24 -85 45 -362 222 -435 280 -261 205
-392 404 -427 651 -10 78 -10 102 5 194 32 186 95 318 207 430 112 112 229
160 390 160 95 0 144 -14 269 -74 86 -41 106 -44 160 -16 52 27 55 26 32 -13
-11 -17 -23 -46 -26 -63 -4 -19 -18 -37 -37 -48 -27 -16 -32 -16 -52 -2 -45
31 -65 52 -80 81 -32 65 -100 70 -177 14 l-41 -30 -52 17 c-29 9 -63 24 -76
33 -57 37 -190 3 -248 -62 -44 -50 -67 -140 -44 -175 5 -8 -1 -31 -16 -59 -12
-26 -23 -63 -23 -82 0 -34 -3 -37 -42 -49 -100 -31 -142 -93 -126 -183 11 -63
21 -84 56 -121 14 -16 23 -28 19 -28 -4 0 3 -17 15 -37 40 -69 58 -107 58
-120 0 -7 5 -13 10 -13 6 0 10 -17 10 -39 0 -24 8 -48 21 -65 23 -29 88 -66
116 -66 13 0 14 -3 5 -8 -8 -6 -1 -14 23 -25 20 -10 44 -31 53 -48 9 -17 29
-45 45 -62 15 -18 27 -35 27 -39 0 -4 18 -17 39 -28 47 -24 134 -29 178 -10
31 13 33 13 77 -28 25 -23 52 -42 60 -42 14 0 26 -41 26 -91 0 -78 61 -149
128 -149 69 0 160 56 177 109 3 9 22 23 43 30 177 64 234 135 214 264 -6 37
-5 54 2 53 44 -3 118 19 150 46 51 42 68 80 71 162 4 87 3 84 15 66 7 -11 10
-11 10 -2 0 7 28 26 61 42 68 32 104 61 125 102 16 31 19 114 4 123 -5 3 -10
11 -10 16 0 6 5 7 11 3 9 -5 10 13 6 67 -3 41 -3 64 1 52 7 -23 10 -16 63 163
25 83 2 164 -60 213 -48 37 -92 51 -162 51 -51 0 -65 5 -108 35 -68 49 -125
68 -185 61 -46 -5 -53 -3 -94 31 -29 23 -61 39 -86 43 l-41 7 60 29 c70 34
185 44 279 24 173 -36 335 -184 417 -382 93 -226 84 -463 -26 -697 l-46 -96
46 45 46 45 25 -30 c14 -16 52 -65 86 -109 l60 -78 -64 -67 c-36 -36 -112
-115 -169 -176 -58 -60 -162 -170 -233 -242 -77 -81 -124 -138 -120 -145 4 -6
3 -8 -3 -5 -13 8 -56 -37 -46 -48 5 -4 3 -5 -3 -2 -9 5 -110 -97 -167 -170
-25 -31 -14 -29 18 2 14 14 25 22 25 16 0 -12 -49 -51 -64 -51 -18 0 -78 -65
-69 -74 5 -4 3 -6 -2 -4 -14 4 -156 -152 -149 -164 3 -4 0 -7 -7 -6 -6 2 -54
-49 -105 -112 l-94 -115 37 -3 c33 -3 41 2 90 55 29 32 83 88 119 125 36 37
66 71 66 75 1 4 32 40 69 78 37 39 84 90 106 115 21 24 56 63 78 86 43 44 151
164 206 229 19 21 68 75 110 120 73 78 114 122 269 290 147 161 212 225 223
223 7 -1 23 4 36 11 23 13 27 11 59 -23 19 -21 40 -35 47 -32 15 5 125 -92
125 -111 0 -24 -238 -283 -260 -283 -12 0 -78 -69 -72 -74 3 -3 0 -6 -6 -6 -7
0 -12 -7 -12 -15 0 -8 -4 -15 -9 -15 -5 0 -14 -14 -21 -31 -7 -17 -27 -45 -44
-63 -17 -18 -42 -47 -56 -65 -14 -18 -35 -37 -47 -42 -13 -5 -23 -15 -23 -24
0 -8 -7 -15 -15 -15 -8 0 -12 -6 -9 -14 3 -9 -5 -18 -23 -24 -20 -7 12 -8 112
-5 166 6 283 -10 408 -59 182 -69 356 -209 453 -361 16 -26 34 -47 41 -47 6 0
19 -3 29 -7 12 -4 15 -3 10 5 -10 16 5 14 28 -3 11 -8 17 -18 13 -21 -3 -3 3
-15 14 -27 28 -31 23 -44 -7 -17 -20 20 -27 22 -33 11 -7 -11 -11 -9 -21 9 -6
12 -14 19 -17 17 -2 -3 3 -19 11 -35 l16 -31 120 0 c66 -1 120 3 120 7 0 5 17
15 39 22 33 10 42 10 63 -4 26 -17 40 -13 31 10 -3 8 5 18 21 24 14 5 26 14
26 19 0 5 16 12 35 15 19 4 35 11 35 15 0 5 11 11 25 13 21 4 25 1 25 -18 0
-12 6 -24 13 -27 8 -3 6 -13 -10 -35 -13 -17 -23 -34 -23 -37 0 -13 22 -3 42
20 22 25 78 36 78 14 0 -26 30 -40 80 -37 l51 3 -56 70 c-137 170 -281 416
-329 564 -39 119 -49 192 -43 299 10 166 57 295 158 428 73 99 142 159 234
205 177 87 403 93 553 14 l62 -33 0 74 0 74 -39 0 c-44 0 -63 15 -31 25 11 3
20 12 20 19 0 7 11 18 25 24 26 12 36 35 10 26 -8 -4 -15 -10 -15 -15 0 -5 -5
-9 -11 -9 -7 0 -20 -9 -30 -21 -14 -16 -31 -21 -81 -22 -56 -2 -63 0 -66 18
-2 15 8 25 43 40 41 18 58 35 36 35 -17 0 -61 -27 -54 -33 3 -4 -10 -7 -30 -7
-40 0 -48 12 -19 30 13 8 6 10 -36 8 -28 -2 -52 0 -52 5 0 4 7 7 15 7 18 0 65
43 65 60 0 5 -9 1 -20 -10 -12 -12 -25 -18 -30 -15 -5 3 -11 1 -15 -5 -8 -13
-65 -13 -65 0 0 6 -7 10 -15 10 -22 0 -18 16 10 38 32 26 32 35 -1 20 -24 -11
-29 -10 -50 17 -20 26 -21 31 -8 49 16 24 19 56 3 56 -5 0 -8 -4 -4 -10 3 -5
-3 -18 -15 -30 -19 -19 -20 -19 -20 -1 0 11 5 21 11 23 8 3 7 14 -3 38 -18 45
-12 75 18 99 49 38 22 29 -58 -21 -163 -101 -359 -180 -587 -238 -182 -45
-326 -70 -408 -70 l-77 0 -43 47 c-76 81 -318 435 -374 544 -99 197 -156 384
-161 529 -2 63 -7 91 -20 109 -12 16 -18 41 -18 80 0 40 3 52 10 41 5 -8 10
-36 10 -62 0 -73 15 -65 28 15 6 40 25 106 41 147 17 41 31 76 31 77 0 2 -113
3 -251 3 -201 -1 -257 -4 -280 -15 -35 -19 -50 -19 -26 -1 15 12 -176 14
-1239 15 -1128 1 -1256 0 -1244 -14 10 -12 10 -15 -1 -15 -8 -1 -30 -23 -49
-51 -19 -27 -47 -55 -62 -61 -19 -9 -28 -22 -32 -50 -8 -48 -23 -49 -32 -2
l-7 36 -58 -6 -59 -7 0 31 c0 17 7 38 15 47 8 8 12 19 9 25 -4 6 0 14 7 19 10
6 11 9 2 9 -7 0 -13 9 -13 20 0 18 -7 20 -70 20 -68 0 -71 -1 -81 -27z m1737
-87 c34 -35 47 -121 21 -138 -9 -6 -8 -8 3 -8 13 0 13 -1 0 -10 -11 -7 -6 -10
22 -10 20 0 40 -4 43 -10 3 -5 1 -10 -6 -10 -7 0 -5 -8 6 -20 18 -20 17 -20
-9 -20 -32 0 -76 -27 -76 -46 0 -8 -6 -14 -14 -14 -11 0 -13 -9 -9 -35 6 -40
-14 -64 -54 -65 -14 0 -23 -6 -23 -16 0 -12 -6 -15 -26 -10 -64 16 -84 17
-118 6 -20 -6 -34 -16 -30 -21 3 -6 0 -16 -6 -24 -6 -8 -8 -20 -4 -26 4 -8 3
-9 -4 -5 -18 11 -52 -26 -52 -55 0 -31 -39 -67 -80 -76 -15 -3 -31 -17 -41
-36 -15 -30 -19 -32 -73 -32 -36 0 -60 -5 -65 -13 -11 -18 -65 -11 -69 9 -2
12 4 15 28 11 31 -4 32 -3 29 29 -2 23 1 33 9 32 22 -5 27 -5 48 -4 29 1 39
40 16 57 -11 9 -12 13 -4 14 6 0 12 7 12 16 0 21 16 35 71 62 26 12 52 29 59
37 7 8 17 15 22 15 6 0 25 15 44 34 32 32 33 35 18 51 -15 15 -18 15 -38 -3
-11 -11 -31 -23 -43 -27 -13 -3 -23 -11 -23 -16 0 -5 -11 -9 -25 -9 -30 0 -32
15 -8 65 12 25 23 35 40 35 12 0 38 14 57 31 20 17 41 29 48 27 29 -10 60 68
32 79 -15 5 -84 -36 -84 -49 0 -5 -11 -8 -25 -8 -14 0 -25 4 -25 9 0 5 -3 16
-6 25 -4 10 1 18 12 23 10 4 29 20 42 35 13 15 30 28 37 28 7 0 18 7 25 15 6
8 38 17 71 21 32 4 59 10 59 14 0 4 30 11 66 15 42 4 67 12 71 21 7 18 11 18
29 0z m1399 0 c12 -9 16 -20 12 -35 -5 -20 -3 -22 25 -16 27 6 29 5 23 -15 -6
-19 -5 -20 14 -8 12 7 16 15 10 19 -6 4 0 7 14 7 l26 0 -32 -27 c-18 -14 -43
-36 -57 -48 -31 -28 -40 -20 -12 10 32 34 28 48 -10 40 -46 -8 -58 -20 -56
-57 1 -17 -5 -47 -12 -67 -11 -32 -11 -39 3 -60 10 -13 17 -33 17 -44 0 -22
33 -48 65 -53 11 -1 39 -5 63 -8 29 -4 49 -2 60 7 9 8 26 19 38 25 20 11 20
11 10 -22 -9 -28 -12 -31 -16 -15 -6 25 -16 19 -57 -35 -23 -29 -30 -47 -27
-65 4 -18 3 -21 -5 -9 -8 12 -16 13 -53 1 -48 -15 -99 -16 -107 -3 -3 5 -24
12 -45 15 -22 4 -43 12 -47 19 -4 7 -22 17 -40 23 -27 9 -35 20 -49 64 -9 30
-24 59 -32 65 -11 8 -18 37 -23 89 -6 67 -5 77 9 77 9 0 16 -8 16 -20 0 -18 3
-19 22 -9 16 9 19 14 9 17 -7 2 -9 7 -5 11 13 9 44 79 44 100 0 31 169 54 205
27z m-803 -7 c15 -8 18 -17 14 -35 -8 -31 11 -51 49 -51 16 0 31 -6 33 -13 3
-7 15 -22 28 -33 14 -12 24 -32 24 -46 0 -14 4 -33 9 -41 6 -8 7 -18 4 -23 -3
-5 -9 -3 -14 4 -6 9 -8 -4 -8 -36 1 -27 -7 -78 -17 -112 -15 -53 -23 -64 -49
-74 -53 -20 -186 -38 -210 -29 -20 8 -94 90 -81 90 4 0 -1 16 -9 37 -17 39
-13 57 5 24 14 -27 50 -27 80 -1 13 11 27 20 32 20 4 0 8 9 8 20 0 11 4 20 9
20 23 0 36 85 20 130 -15 40 -130 81 -169 60 -31 -17 -37 -4 -12 23 12 13 22
29 22 35 0 7 16 13 38 13 51 3 65 4 82 11 50 20 83 23 112 7z m-275 -74 c-6
-7 -19 -10 -27 -7 -12 5 -12 7 3 10 9 2 17 8 17 13 0 6 -5 7 -12 3 -7 -4 -8
-3 -4 5 6 9 11 9 21 1 11 -9 12 -15 2 -25z m1223 -34 c-9 -17 -8 -21 5 -21 9
0 14 4 10 9 -3 5 -2 12 3 15 4 2 8 -6 8 -18 0 -20 -5 -23 -37 -22 -21 0 -33 3
-28 7 13 8 39 57 40 78 1 9 4 7 6 -6 2 -12 -1 -31 -7 -42z m-2125 24 c17 -13
26 -24 20 -24 -5 0 -23 11 -40 24 -16 14 -25 25 -20 25 6 0 24 -11 40 -25z
m849 10 c-4 -8 -10 -15 -15 -15 -4 0 -6 7 -3 15 4 8 10 15 15 15 4 0 6 -7 3
-15z m-1649 -74 c7 -13 -32 -34 -47 -25 -7 5 -5 11 7 21 22 15 32 16 40 4z
m1893 -27 c-4 -3 -12 5 -18 18 -12 22 -12 22 6 6 10 -10 15 -20 12 -24z m1089
10 c-3 -3 -12 -4 -19 -1 -8 3 -5 6 6 6 11 1 17 -2 13 -5z m-3140 -77 c-19 -29
-84 -30 -112 -2 l-20 20 65 5 c79 6 85 4 67 -23z m1875 -73 c3 -16 10 -40 14
-54 7 -25 7 -25 -14 -6 -14 12 -22 31 -22 49 0 17 -8 40 -17 51 -18 20 -18 20
7 5 13 -9 28 -29 32 -45z m-822 -88 c0 -3 -4 -8 -10 -11 -5 -3 -10 -1 -10 4 0
6 5 11 10 11 6 0 10 -2 10 -4z m2027 -42 c-3 -3 -12 -4 -19 -1 -8 3 -5 6 6 6
11 1 17 -2 13 -5z m-2967 -108 c0 -2 -16 -6 -35 -8 -19 -2 -35 0 -35 4 0 4 16
8 35 8 19 0 35 -2 35 -4z m2990 -26 c0 -14 -53 -31 -64 -20 -7 7 -5 10 8 10
11 0 16 5 13 13 -4 10 2 13 19 9 13 -2 24 -8 24 -12z m-3095 0 c13 -6 15 -9 5
-9 -8 0 -22 4 -30 9 -18 12 -2 12 25 0z m262 4 c-3 -3 -12 -4 -19 -1 -8 3 -5
6 6 6 11 1 17 -2 13 -5z m-67 -25 c36 -7 67 -15 70 -18 3 -4 12 -6 20 -6 8 1
20 -1 25 -4 6 -3 16 -7 23 -8 56 -13 82 -24 82 -34 0 -6 4 -8 9 -5 5 4 42 -30
81 -74 40 -44 77 -77 81 -74 5 3 9 1 9 -5 0 -5 -5 -11 -11 -13 -12 -4 66 -108
81 -108 5 0 6 -7 3 -17 -4 -11 -3 -14 5 -9 12 7 44 -44 48 -79 2 -11 5 -35 7
-52 2 -18 10 -39 16 -47 6 -7 9 -21 5 -30 -3 -9 -1 -16 5 -16 6 0 11 -17 11
-40 0 -22 4 -40 9 -40 11 0 13 -68 13 -350 0 -112 -4 -206 -8 -207 -5 -2 -8
-27 -7 -55 1 -29 -5 -90 -13 -136 -9 -46 -14 -86 -11 -89 3 -3 -1 -13 -10 -21
-10 -10 -12 -17 -5 -20 8 -2 6 -12 -4 -28 -9 -13 -13 -24 -10 -24 4 0 4 -6 0
-12 -11 -18 -15 -46 -14 -100 1 -56 -23 -107 -77 -164 -43 -45 -55 -52 -133
-68 -53 -11 -56 -13 -86 -70 -40 -75 -79 -116 -110 -116 -13 0 -24 5 -24 11 0
6 -8 8 -19 4 -34 -10 -70 12 -93 60 -12 25 -28 45 -35 45 -7 0 -13 4 -13 8 0
5 -13 7 -30 4 -25 -4 -30 -1 -30 16 0 13 -16 32 -40 49 -24 17 -40 36 -40 49
0 28 -10 36 -27 23 -8 -8 -13 -8 -13 -1 0 6 5 12 11 14 9 3 9 10 0 26 -27 51
-47 6 -20 -48 18 -38 69 -87 69 -68 0 8 3 9 10 2 12 -12 1 -54 -14 -54 -13 1
-93 130 -97 156 -1 11 1 32 6 47 8 30 -8 74 -32 90 -7 4 -13 16 -13 25 0 10
-10 22 -22 27 -18 8 -22 17 -20 43 3 27 -1 34 -22 42 -14 5 -26 13 -26 18 0 5
-15 29 -33 53 -19 24 -37 58 -41 74 -4 17 -20 47 -37 67 -16 20 -29 41 -29 45
0 5 -8 13 -19 20 -30 19 -63 93 -67 153 -3 33 -13 66 -24 82 -11 15 -20 37
-20 49 0 12 -6 30 -14 38 -8 9 -15 34 -17 56 -1 22 -7 46 -13 53 -14 20 -18
52 -6 52 7 0 7 6 2 18 -11 21 0 119 13 112 9 -5 21 33 32 99 4 23 2 32 -6 27
-7 -5 -9 3 -5 26 4 25 3 29 -5 18 -6 -8 -11 -23 -11 -32 0 -10 -5 -18 -10 -18
-6 0 -4 15 5 36 8 20 15 39 15 43 0 3 4 0 9 -7 13 -22 69 38 80 87 7 32 6 41
-4 41 -7 0 -16 -7 -19 -16 -4 -9 -9 -14 -12 -11 -4 3 3 18 15 33 11 15 21 22
21 15 0 -26 28 -8 45 29 10 22 22 40 27 40 4 0 8 6 8 13 0 7 20 32 44 56 24
24 43 49 42 55 -2 6 -1 8 2 3 2 -4 26 11 54 33 28 22 57 40 64 40 8 0 14 4 14
9 0 10 104 54 165 69 43 11 63 10 165 -9z m1195 -41 c-54 -49 -124 -93 -132
-84 -3 3 3 9 15 13 11 5 37 24 59 43 47 44 97 80 102 74 2 -2 -18 -23 -44 -46z
m-985 16 c0 -8 -4 -12 -10 -9 -5 3 -10 10 -10 16 0 5 5 9 10 9 6 0 10 -7 10
-16z m2797 2 c3 -3 -2 -15 -11 -25 -13 -15 -26 -18 -52 -14 -23 4 -40 1 -52
-9 -17 -16 -61 -33 -74 -30 -4 1 -19 -3 -33 -8 -16 -6 -25 -6 -25 0 0 6 8 10
18 10 14 0 15 2 2 10 -13 8 -10 14 14 35 16 14 32 26 35 26 3 1 21 3 40 5 19
2 37 7 40 10 7 7 89 -1 98 -10z m-2744 -26 c14 -11 30 -20 35 -20 5 0 13 -7
16 -16 13 -33 5 -37 -21 -12 -16 14 -38 31 -50 37 -23 11 -31 31 -14 31 4 0
20 -9 34 -20z m383 -60 c8 0 14 -7 14 -15 0 -8 -8 -15 -17 -15 -22 1 -53 23
-53 38 0 15 34 20 38 5 2 -7 10 -13 18 -13z m2383 21 c24 -1 24 -1 5 -16 -18
-13 -12 -19 16 -17 3 0 6 -8 6 -18 0 -10 -4 -17 -7 -14 -4 2 -10 0 -14 -6 -4
-6 -11 -8 -16 -5 -15 10 -48 -5 -60 -26 -10 -19 -8 -20 18 -18 15 2 33 6 38
10 6 3 24 5 40 3 17 -1 38 -3 48 -3 10 -1 17 -9 17 -20 0 -11 7 -26 15 -35 25
-24 17 -34 -26 -34 -47 -1 -60 -9 -39 -22 8 -6 11 -10 5 -10 -5 0 -16 4 -24 9
-9 6 -19 5 -26 -2 -8 -8 -9 -14 -3 -18 15 -9 92 2 100 14 4 7 12 6 22 -2 9 -8
16 -10 16 -6 0 5 9 0 20 -10 11 -10 19 -29 19 -44 -1 -14 1 -33 5 -42 6 -13 2
-16 -18 -12 -17 4 -27 -1 -35 -15 -14 -27 -7 -30 40 -22 43 8 43 9 64 -59 5
-18 4 -23 -6 -19 -8 3 -25 -9 -39 -26 -18 -23 -19 -27 -4 -13 24 20 40 22 47
5 4 -9 6 -8 6 3 1 20 55 14 73 -9 11 -13 10 -15 -4 -9 -15 5 -16 4 -5 -13 6
-11 17 -20 23 -20 6 0 18 -8 25 -17 7 -10 9 -15 5 -11 -5 4 -25 -5 -45 -20
-42 -32 -89 -54 -101 -47 -8 5 -36 -23 -29 -29 2 -3 28 7 58 20 91 42 133 54
153 43 22 -12 25 -59 3 -59 -9 0 -18 -7 -21 -15 -4 -8 -14 -15 -23 -15 -10 0
-28 -11 -41 -25 -13 -14 -18 -25 -12 -25 7 0 12 5 12 10 0 6 9 10 20 10 11 0
20 5 20 11 0 7 10 9 25 5 19 -5 25 -2 25 9 0 15 22 15 69 0 23 -7 35 -35 21
-49 -13 -13 -13 -49 0 -41 16 10 24 -25 13 -55 -6 -16 -8 -32 -4 -37 8 -12 42
-13 57 -2 7 6 16 3 24 -6 7 -9 8 -15 2 -15 -5 0 -8 -9 -5 -19 3 -10 -3 -32
-14 -47 -22 -36 -82 -94 -96 -94 -6 0 -7 -3 -4 -7 11 -10 -24 -43 -45 -43 -10
0 -17 -3 -17 -7 4 -24 -4 -33 -30 -33 -39 0 -49 18 -21 37 12 8 18 19 13 23
-9 10 -105 1 -98 -9 2 -4 0 -13 -4 -20 -7 -10 -13 -11 -31 -1 -18 10 -21 18
-16 42 3 17 6 37 6 45 0 8 5 11 12 7 7 -5 8 -3 4 5 -5 7 -1 20 9 31 16 18 16
18 -4 13 -27 -7 -62 -50 -55 -67 3 -8 -4 -16 -17 -19 -13 -4 -24 -5 -25 -4 -3
2 -6 77 -5 95 1 6 8 12 16 12 10 0 15 11 15 35 0 22 8 43 20 55 22 22 26 40
10 40 -5 0 -10 -9 -10 -20 0 -12 -7 -21 -17 -21 -68 -6 -92 -5 -87 2 3 5 -1 9
-8 9 -8 0 -14 16 -16 45 -2 34 1 45 12 45 8 0 23 14 33 30 9 17 23 30 30 30 7
0 13 7 13 15 0 12 -5 13 -27 4 -16 -6 -35 -17 -44 -25 -13 -12 -18 -12 -21 -3
-3 8 -11 10 -23 5 -17 -6 -17 -9 -5 -17 12 -9 10 -10 -7 -6 -12 3 -24 0 -26
-7 -3 -8 -8 -8 -16 -1 -14 14 14 89 46 125 13 14 23 28 23 31 0 4 16 14 36 24
35 16 42 35 7 20 -10 -5 -21 -7 -25 -7 -5 1 -18 -14 -30 -33 -27 -41 -32 -42
-52 -13 -9 12 -19 19 -22 15 -4 -4 3 -15 14 -26 28 -24 28 -26 -8 -41 -16 -7
-30 -17 -30 -22 0 -5 -11 -1 -24 9 -13 10 -22 21 -19 26 2 4 -2 7 -9 8 -7 0
-5 4 6 8 17 6 16 9 -10 26 -16 11 -33 20 -38 20 -5 0 -11 6 -14 13 -2 8 2 10
15 5 16 -6 16 -5 4 10 -11 14 -11 23 -1 46 8 21 9 35 1 49 -7 14 -8 29 -2 45
8 22 7 24 -10 20 -14 -4 -18 -1 -13 10 3 9 12 18 20 21 8 3 14 12 14 21 0 8 8
15 17 15 14 0 15 2 4 13 -10 10 -15 8 -27 -7 -19 -26 -27 -15 -14 18 14 38 13
46 -7 46 -25 1 -53 24 -53 44 0 9 8 20 18 23 9 4 26 15 36 25 11 10 26 18 33
18 18 0 16 10 -4 26 -25 19 -44 17 -36 -3 5 -12 2 -15 -10 -10 -13 5 -17 1
-17 -14 0 -12 -4 -17 -11 -13 -6 3 -9 15 -6 25 3 11 1 17 -3 14 -5 -3 -8 6 -7
20 2 29 49 73 86 81 14 3 37 9 51 14 14 4 36 6 50 4 14 -1 36 -3 49 -3z m-241
-95 c-2 -1 -11 -7 -20 -14 -14 -11 -16 -10 -11 7 3 12 11 17 19 14 8 -3 14 -6
12 -7z m-1375 -26 c3 -11 1 -20 -4 -20 -5 0 -9 2 -9 4 0 2 -3 11 -6 20 -3 9
-2 16 4 16 5 0 12 -9 15 -20z m597 -11 c0 -25 -33 -22 -38 4 -2 12 3 17 17 17
15 0 21 -6 21 -21z m-2577 -29 c-6 -24 -23 -37 -23 -18 0 12 18 38 26 38 1 0
0 -9 -3 -20z m2847 1 c0 -10 -7 -22 -15 -25 -20 -7 -32 23 -14 35 21 13 29 11
29 -10z m-1790 -43 c0 -4 -5 -8 -11 -8 -5 0 -7 5 -4 10 3 6 -1 10 -9 10 -10 0
-13 6 -9 16 6 15 8 15 20 -2 7 -10 13 -21 13 -26z m690 1 c0 -6 -7 -17 -15
-25 -12 -13 -16 -11 -31 12 -14 21 -15 27 -4 34 16 10 50 -5 50 -21z m440 17
c0 -16 -18 -31 -27 -22 -8 8 5 36 17 36 5 0 10 -6 10 -14z m345 -32 c14 -14
22 -30 18 -37 -4 -7 -10 -3 -16 11 -12 26 -38 37 -49 20 -9 -15 -11 -6 -2 16
9 22 19 20 49 -10z m530 -33 c53 -20 69 -47 41 -70 -11 -10 -18 -8 -35 10 -12
13 -21 27 -21 32 0 5 -10 18 -22 28 -26 23 -25 23 37 0z m-579 -21 c3 0 2 5
-2 11 -4 7 -1 10 6 7 22 -7 23 -26 1 -33 -22 -7 -61 9 -61 25 0 6 10 6 26 0
14 -6 28 -10 30 -10z m-508 -97 c22 -13 22 -16 8 -32 -9 -10 -13 -21 -9 -24 3
-4 2 -7 -4 -7 -15 0 -50 42 -56 68 -5 20 -2 22 16 16 12 -3 33 -13 45 -21z
m789 -24 c5 -26 -13 -42 -41 -35 -32 8 -34 33 -3 46 27 11 41 8 44 -11z m-346
-6 c14 -14 2 -73 -15 -73 -24 0 -49 38 -42 65 7 26 35 30 57 8z m1004 -13 c-3
-5 -10 -10 -16 -10 -5 0 -9 5 -9 10 0 6 7 10 16 10 8 0 12 -4 9 -10z m-719
-43 c4 -4 3 -8 -2 -8 -58 -8 -79 -5 -69 11 6 9 61 8 71 -3z m-909 -13 c2 -6
-8 -16 -22 -22 -25 -12 -26 -9 -16 36 2 8 35 -4 38 -14z m-71 -53 c6 -26 4
-33 -7 -29 -7 2 -15 22 -17 44 -4 47 14 36 24 -15z m1714 39 c0 -5 -2 -10 -4
-10 -3 0 -8 5 -11 10 -3 6 -1 10 4 10 6 0 11 -4 11 -10z m-3634 -104 c-4 -25
-12 -48 -17 -52 -10 -6 -5 41 8 89 9 34 15 8 9 -37z m5292 21 c12 -11 22 -26
22 -32 0 -7 10 -25 22 -41 13 -15 17 -25 10 -20 -8 5 -12 0 -12 -14 0 -12 5
-18 10 -15 6 3 10 2 10 -4 0 -5 -4 -12 -9 -15 -4 -3 -5 -24 -1 -46 6 -32 4
-42 -9 -50 -9 -5 -12 -10 -7 -10 6 0 1 -6 -9 -14 -18 -13 -21 -11 -37 14 -9
16 -20 46 -24 67 -4 20 -12 43 -18 49 -28 30 -46 55 -46 65 0 7 -10 20 -22 31
-26 22 -19 32 37 51 43 16 48 15 83 -16z m-3557 2 c13 -26 -12 -104 -38 -113
-20 -8 -27 -1 -20 19 8 20 8 25 0 24 -11 -1 -21 33 -15 53 4 18 32 33 32 18 0
-6 -4 -10 -10 -10 -12 0 -13 -10 -1 -29 8 -12 12 -12 25 2 9 9 12 17 5 19 -5
2 -7 11 -4 21 9 22 12 21 26 -4z m1687 -19 c3 -38 -25 -111 -48 -125 -6 -4 -2
8 10 27 13 22 20 50 20 86 0 61 15 71 18 12z m-118 15 c15 -18 -1 -65 -21 -65
-16 0 -49 30 -49 45 0 32 48 46 70 20z m-1910 -23 c0 -15 -2 -15 -10 -2 -13
20 -13 33 0 25 6 -3 10 -14 10 -23z m1449 8 c10 0 1 -51 -11 -67 -19 -24 -57
14 -41 40 4 7 8 15 9 20 1 4 2 10 3 13 0 3 8 3 17 0 9 -3 19 -6 23 -6z m331
-15 c0 -9 -9 -15 -22 -15 -21 0 -21 0 -2 15 24 18 24 18 24 0z m1973 -9 c9 -7
17 -18 17 -25 0 -6 5 -11 10 -11 6 0 10 -6 10 -13 0 -8 9 -22 20 -32 11 -10
20 -24 20 -32 0 -8 7 -37 16 -64 15 -45 15 -57 3 -107 -7 -31 -14 -62 -14 -68
-1 -17 -26 -45 -35 -39 -5 3 -11 -1 -13 -7 -3 -7 -6 -3 -6 9 -2 56 -81 50 -81
-6 0 -15 6 -33 13 -40 10 -10 4 -19 -28 -47 -31 -28 -37 -37 -25 -44 11 -7 8
-11 -15 -21 -17 -6 -43 -12 -60 -13 -28 -1 -30 -4 -30 -40 0 -48 -28 -72 -50
-43 -10 13 -20 17 -36 12 -13 -4 -19 -3 -15 3 3 5 -1 15 -8 21 -11 9 -16 9
-21 1 -6 -10 20 -48 50 -73 7 -6 6 -10 -2 -13 -7 -3 -24 -15 -39 -27 -25 -19
-26 -21 -8 -28 17 -7 17 -8 2 -8 -11 -1 -18 -9 -18 -21 0 -13 -7 -20 -20 -20
-11 0 -20 5 -20 10 0 6 -7 10 -15 10 -8 0 -15 -6 -15 -12 1 -18 25 -48 39 -48
17 0 14 -11 -11 -37 -25 -27 -35 -28 -57 -9 -9 7 -31 16 -50 20 l-34 6 19 -21
c10 -12 30 -25 43 -30 22 -9 22 -10 7 -34 -9 -14 -12 -25 -6 -25 5 0 10 -5 10
-11 0 -6 -7 -8 -17 -5 -9 4 -20 2 -23 -5 -5 -7 -18 -8 -43 -1 l-35 10 25 -37
c20 -29 22 -37 9 -39 -8 -2 -13 -9 -10 -17 3 -7 -5 -24 -17 -36 l-22 -22 -29
33 c-15 19 -28 40 -28 47 0 7 -5 13 -10 13 -6 0 -10 -6 -9 -12 3 -24 -1 -38
-11 -38 -5 0 -10 6 -10 14 0 17 -30 30 -42 18 -9 -9 48 -52 67 -52 5 0 24 -12
43 -26 28 -22 36 -24 43 -13 5 8 9 9 9 3 0 -6 -12 -21 -27 -35 -16 -13 -22
-17 -15 -9 6 8 12 19 12 25 -1 5 -9 0 -20 -13 -17 -21 -19 -21 -30 -5 -9 15
-10 14 -4 -6 l6 -24 -27 21 c-18 14 -41 22 -64 21 -20 0 -49 2 -66 6 -24 5
-21 2 14 -14 24 -12 48 -21 55 -21 22 -1 66 -46 75 -77 8 -26 6 -32 -9 -36
-11 -3 -26 3 -35 13 -9 10 -26 18 -38 18 -28 0 -77 8 -98 17 -10 3 -20 2 -23
-4 -8 -13 45 -41 77 -41 13 0 36 -9 50 -20 14 -11 30 -20 35 -20 6 0 8 -9 5
-20 -5 -19 -40 -28 -83 -21 -8 2 -41 2 -72 2 -55 -1 -58 0 -64 26 -3 16 -7 34
-10 41 -2 7 4 20 14 30 12 12 16 30 14 65 -3 51 11 82 34 73 25 -10 24 12 -1
32 -14 11 -25 25 -25 32 0 6 -7 18 -15 26 -8 9 -15 24 -15 35 0 17 5 18 43 13
23 -4 51 -12 62 -18 11 -5 23 -10 27 -11 3 0 10 -3 14 -7 4 -5 12 -8 18 -8 6
0 2 7 -8 15 -10 8 -23 12 -27 9 -5 -3 -9 1 -9 8 0 7 -17 22 -37 33 -21 11 -43
27 -50 35 -11 13 -12 13 -13 0 0 -13 -1 -13 -10 0 -15 23 -12 30 10 30 11 0
20 6 20 14 0 7 -8 13 -17 12 -10 0 -19 2 -20 7 -7 18 -2 27 16 27 15 0 17 6
14 41 -3 24 0 39 5 35 11 -7 22 16 22 45 0 16 13 44 36 78 2 2 10 -4 18 -12 9
-9 25 -13 38 -10 16 5 20 3 16 -9 -5 -11 0 -14 18 -10 24 4 24 5 7 24 -10 11
-25 17 -35 14 -12 -3 -24 4 -34 19 -14 21 -14 27 0 54 11 21 21 28 32 24 11
-4 15 -1 12 12 -2 10 3 20 10 22 6 3 12 0 12 -6 0 -6 5 -11 11 -11 6 0 8 9 4
20 -3 11 -2 20 4 20 5 0 17 3 25 6 12 5 15 2 9 -12 -4 -12 -3 -15 5 -10 7 4
28 3 47 -3 30 -8 35 -7 35 8 0 10 -11 23 -25 29 -15 7 -25 8 -25 2 0 -18 -19
-10 -25 10 -4 13 1 30 14 46 11 15 18 31 14 37 -4 7 0 8 11 4 22 -9 37 0 30
17 -3 8 -15 12 -27 10 -21 -4 -21 -4 -2 5 11 5 16 10 11 10 -5 1 -3 8 4 16 7
8 17 12 23 8 6 -4 3 -9 -9 -14 -16 -7 -15 -8 7 -8 14 -1 29 2 32 6 13 13 56
11 68 -3 18 -22 29 -16 29 17 0 29 22 64 33 53 3 -3 3 3 0 15 -4 15 -1 21 10
21 9 0 18 9 22 19 3 10 17 22 30 25 18 5 25 13 25 30 0 19 4 23 20 19 15 -4
20 0 20 13 0 15 2 16 9 5 7 -11 11 -9 21 9 6 12 14 19 17 16 3 -3 17 7 29 22
13 15 24 21 24 15 0 -7 9 -13 19 -13 11 0 21 -6 24 -12 6 -19 15 -7 19 27 3
30 22 51 68 72 33 15 42 15 63 -1z m-1502 -19 c-10 -9 -11 -8 -5 6 3 10 9 15
12 12 3 -3 0 -11 -7 -18z m-1257 -8 c-3 -5 0 -9 6 -9 7 0 2 -11 -11 -25 -23
-23 -25 -24 -42 -6 -25 25 -6 60 29 53 13 -2 21 -8 18 -13z m2996 -109 c0 -5
-5 -10 -11 -10 -5 0 -7 5 -4 10 3 6 8 10 11 10 2 0 4 -4 4 -10z m-3958 -30 c3
-17 1 -33 -4 -36 -4 -3 -8 11 -8 30 0 44 6 47 12 6z m562 -13 c-8 -21 -18 -22
-34 -2 -17 20 9 50 28 31 7 -7 10 -20 6 -29z m1830 26 c-5 -5 -12 -12 -16 -18
-4 -6 -8 -2 -8 8 0 9 7 17 17 17 9 0 12 -3 7 -7z m1826 -3 c0 -5 -10 -10 -22
-10 -19 0 -20 2 -8 10 19 13 30 13 30 0z m-2262 -46 c4 -27 -34 -62 -50 -46
-9 9 -7 12 10 12 18 0 22 6 21 28 0 15 -3 21 -6 14 -2 -6 -9 -9 -15 -6 -5 3
-16 -2 -23 -12 -12 -16 -14 -16 -15 -3 -1 41 72 54 78 13z m418 -4 c0 -11 -6
-20 -13 -20 -15 0 -15 2 -7 24 9 22 20 20 20 -4z m564 0 c0 -5 -4 -10 -10 -10
-5 0 -10 5 -10 10 0 6 5 10 10 10 6 0 10 -4 10 -10z m-1682 -31 c3 -22 -3 -30
-29 -43 -34 -17 -48 -10 -49 22 0 54 72 73 78 21z m377 -6 c26 -35 -10 -57
-47 -29 -21 15 -23 32 -5 39 24 10 40 7 52 -10z m2640 -13 c3 -5 1 -10 -4 -10
-6 0 -11 5 -11 10 0 6 2 10 4 10 3 0 8 -4 11 -10z m-1236 -17 c-6 -7 -15 -13
-20 -13 -5 0 -6 6 -3 13 3 8 11 14 19 14 11 0 12 -4 4 -14z m194 -27 c4 -10 1
-13 -9 -9 -7 3 -14 9 -14 14 0 14 17 10 23 -5z m-1463 -51 c-13 -14 -27 -25
-31 -25 -3 0 5 13 20 29 14 16 28 27 30 25 3 -2 -6 -15 -19 -29z m-1310 -6
c13 -23 8 -31 -21 -36 -21 -3 -35 18 -25 42 8 22 33 18 46 -6z m1970 -62 c5
-16 14 -26 19 -22 5 3 13 -4 16 -16 8 -23 -2 -40 -13 -22 -5 8 -13 7 -27 -3
-11 -8 -19 -18 -17 -22 2 -3 -1 -8 -8 -10 -6 -2 -10 0 -9 5 1 4 1 27 0 51 -1
44 -21 60 -21 16 0 -29 -16 -64 -30 -64 -18 0 -11 78 8 89 15 9 15 12 2 22
-12 8 -8 9 17 5 18 -3 32 -2 32 2 -1 4 -1 14 0 22 2 16 12 0 31 -53z m-1465
17 c31 -12 36 -19 31 -37 -3 -12 -6 -25 -6 -29 0 -31 -70 30 -70 62 0 24 -2
24 45 4z m262 0 c-3 -3 -12 -4 -19 -1 -8 3 -5 6 6 6 11 1 17 -2 13 -5z m-741
-62 c-2 -9 -15 -21 -30 -27 -23 -8 -30 -6 -42 10 -16 22 -18 45 -4 45 6 0 10
-6 10 -14 0 -7 7 -19 15 -26 19 -16 19 -7 0 29 -8 16 -12 31 -8 34 11 11 61
-33 59 -51z m1234 17 c0 -12 -7 -19 -19 -19 -26 0 -36 17 -21 35 15 18 40 8
40 -16z m1161 3 c-5 -10 -18 -25 -27 -33 -11 -9 -9 -2 6 19 26 35 36 42 21 14z
m-1415 -89 c-4 -4 -11 -1 -16 7 -16 25 -11 35 7 17 9 -9 13 -20 9 -24z m164
-18 c6 -8 9 -19 5 -25 -5 -8 -12 -5 -21 8 -9 14 -21 18 -35 15 -15 -4 -20 -3
-15 5 10 17 51 15 66 -3z m-380 -10 c7 -8 15 -13 19 -11 3 2 14 1 23 -3 16 -6
16 -8 1 -39 l-16 -33 -22 23 c-24 24 -42 78 -26 78 5 0 14 -7 21 -15z m-510
-39 c0 -16 -45 -48 -54 -39 -3 4 -6 17 -6 29 0 16 7 24 23 26 27 5 37 1 37
-16z m2850 20 c0 -3 -4 -8 -10 -11 -5 -3 -10 -1 -10 4 0 6 5 11 10 11 6 0 10
-2 10 -4z m-4832 -61 l12 -30 -20 24 c-11 13 -20 30 -20 39 0 21 13 6 28 -33z
m4003 18 c1 -17 2 -17 6 0 5 18 18 23 27 8 8 -12 -31 -44 -43 -36 -14 8 -14
45 -1 45 6 0 11 -8 11 -17z m149 -13 c0 -4 -9 -6 -21 -3 -15 4 -17 8 -8 14 14
8 29 3 29 -11z m-1892 -9 c27 -11 31 -17 26 -35 -3 -11 -12 -27 -19 -34 -10
-11 -16 -6 -34 30 -22 47 -26 62 -13 56 4 -3 22 -10 40 -17z m1802 15 c0 -14
-24 -66 -30 -66 -7 0 -5 22 6 58 3 10 24 18 24 8z m-2025 -49 c13 -19 13 -23
-4 -41 -13 -13 -27 -17 -44 -12 -33 8 -41 32 -20 60 20 27 47 24 68 -7z m-848
1 c-3 -8 -6 -5 -6 6 -1 11 2 17 5 13 3 -3 4 -12 1 -19z m2905 -59 c10 -7 0
-39 -13 -39 -5 0 -9 -15 -10 -32 -1 -33 -1 -33 -10 7 -7 27 -6 41 1 43 5 2 10
16 11 30 0 16 3 21 6 12 3 -8 10 -18 15 -21z m-1884 -9 c26 -25 28 -36 6 -44
-12 -4 -15 -2 -10 9 3 9 0 15 -9 15 -8 0 -15 7 -15 16 0 9 -5 12 -12 8 -7 -4
-8 -3 -4 4 10 17 19 15 44 -8z m522 -16 c0 -20 -18 -17 -29 5 -9 16 -8 18 9
14 11 -3 20 -12 20 -19z m-1568 -39 c-2 -14 -6 -25 -8 -25 -2 0 -4 11 -4 25 0
14 4 25 9 25 4 0 6 -11 3 -25z m401 8 c-7 -2 -19 -2 -25 0 -7 3 -2 5 12 5 14
0 19 -2 13 -5z m1067 -38 c10 -12 10 -18 0 -30 -7 -8 -17 -15 -23 -15 -7 0 -7
4 1 12 16 16 15 28 -2 28 -8 0 -18 5 -21 10 -10 16 31 11 45 -5z m-860 -5 c0
-5 -2 -10 -4 -10 -3 0 -8 5 -11 10 -3 6 -1 10 4 10 6 0 11 -4 11 -10z m41 -42
l22 -33 -27 27 c-24 25 -32 38 -22 38 3 0 15 -15 27 -32z m549 28 c0 -2 -7 -7
-16 -10 -8 -3 -12 -2 -9 4 6 10 25 14 25 6z m-499 -24 c-7 -2 -18 1 -23 6 -8
8 -4 9 13 5 13 -4 18 -8 10 -11z m519 -27 c0 -12 -21 -25 -41 -25 -13 0 -11
24 2 37 14 14 39 6 39 -12z m-2230 -25 c0 -5 -4 -10 -10 -10 -5 0 -10 5 -10
10 0 6 5 10 10 10 6 0 10 -4 10 -10z m1958 -204 c28 -14 52 -33 52 -41 0 -21
-10 -18 -50 15 -19 17 -40 30 -47 30 -7 0 -13 4 -13 8 0 5 -9 13 -19 18 -31
15 -119 94 -154 138 -23 30 -4 17 73 -50 58 -50 129 -103 158 -118z m-688 124
c11 -8 7 -9 -15 -4 -37 8 -45 14 -19 14 10 0 26 -5 34 -10z m135 -48 c-3 -3
-11 0 -18 7 -9 10 -8 11 6 5 10 -3 15 -9 12 -12z m2342 -67 c-1 -5 3 -9 10 -8
7 2 10 -4 6 -12 -4 -12 -9 -13 -19 -4 -7 6 -18 8 -23 5 -5 -4 -13 -1 -17 5 -4
8 -3 9 4 5 7 -4 12 -2 12 4 0 6 -13 19 -30 28 -16 9 -30 20 -30 25 0 4 -6 7
-14 7 -7 0 -19 7 -26 15 -7 8 20 -2 58 -23 39 -20 70 -41 69 -47z m-4017 55
c13 -9 13 -10 0 -10 -8 0 -22 5 -30 10 -13 9 -13 10 0 10 8 0 22 -5 30 -10z
m3875 -60 c3 -5 -1 -10 -9 -10 -9 0 -16 5 -16 10 0 6 4 10 9 10 6 0 13 -4 16
-10z m52 -20 c8 -20 18 -30 32 -30 25 0 28 -18 5 -27 -10 -4 -22 1 -30 11 -8
12 -20 16 -32 12 -14 -5 -21 -1 -25 15 -4 15 -2 19 9 15 9 -3 14 1 14 14 0 30
14 24 27 -10z m-4107 10 c0 -5 -5 -10 -11 -10 -5 0 -7 5 -4 10 3 6 8 10 11 10
2 0 4 -4 4 -10z m2100 -10 c21 -11 42 -25 46 -31 4 -7 3 -10 -2 -8 -5 3 -22
11 -39 19 -30 15 -62 40 -50 40 3 0 23 -9 45 -20z m2140 -35 c0 -8 4 -15 10
-15 10 0 42 -99 45 -140 1 -14 -2 -34 -6 -45 l-8 -20 -2 20 c0 11 -3 44 -4 73
-2 29 -8 59 -14 66 -6 7 -8 16 -4 19 12 13 -13 7 -27 -5 -12 -11 -12 -10 0 5
10 14 10 21 2 29 -15 15 -15 28 -2 28 6 0 10 -7 10 -15z m-1725 -36 c4 -6 16
-14 28 -18 16 -6 17 -9 5 -14 -18 -6 -78 32 -78 51 0 9 5 10 19 2 11 -5 23
-15 26 -21z m1684 -18 c-1 -13 -2 -13 -6 2 -3 13 -10 16 -25 11 -18 -5 -19 -4
-7 9 16 18 40 4 38 -22z m-145 13 c4 -10 1 -14 -6 -12 -15 5 -23 28 -10 28 5
0 13 -7 16 -16z m86 -19 c19 -23 8 -25 -14 -4 -11 11 -15 19 -9 19 6 0 16 -7
23 -15z m765 5 c3 -6 -1 -7 -9 -4 -9 3 -16 1 -16 -5 0 -6 -4 -11 -10 -11 -5 0
-10 7 -10 15 0 17 35 21 45 5z m-2660 -10 c3 -5 1 -10 -4 -10 -6 0 -11 5 -11
10 0 6 2 10 4 10 3 0 8 -4 11 -10z m454 -74 c-9 -8 -10 -7 -5 7 3 10 7 24 7
30 1 7 3 4 6 -7 3 -10 -1 -23 -8 -30z m2145 28 c43 8 49 -9 9 -25 -40 -15 -93
-19 -93 -6 0 19 33 49 41 36 4 -8 20 -9 43 -5z m-657 -41 c-3 -10 -5 -4 -5 12
0 17 2 24 5 18 2 -7 2 -21 0 -30z m-3477 13 c0 -3 -4 -8 -10 -11 -5 -3 -10 -1
-10 4 0 6 5 11 10 11 6 0 10 -2 10 -4z m1660 -48 c0 -6 -7 -5 -15 2 -8 7 -15
17 -15 22 0 6 7 5 15 -2 8 -7 15 -17 15 -22z m2578 21 c-10 -5 -18 -16 -18
-23 0 -14 -50 -39 -82 -41 -22 -2 -23 3 -2 26 9 10 21 16 28 13 7 -3 21 4 31
16 10 11 28 20 39 20 19 -1 19 -2 4 -11z m-151 -21 c21 -27 22 -57 1 -64 -11
-3 -25 -1 -30 4 -6 6 -16 8 -23 6 -15 -6 -26 29 -14 47 5 8 9 10 9 6 0 -4 8
-3 18 2 23 14 28 13 39 -1z m203 -72 c-5 -14 -16 -26 -25 -26 -8 0 -22 -11
-31 -25 -9 -14 -25 -25 -35 -25 -10 0 -21 -4 -24 -10 -19 -31 -125 9 -125 46
0 8 4 13 8 10 5 -3 21 4 37 14 18 12 38 17 56 13 22 -4 28 -1 34 17 6 18 12
21 40 16 23 -5 36 -2 45 9 12 14 15 14 22 1 4 -8 4 -26 -2 -40z m-452 25 c2
-6 10 -11 18 -11 19 0 18 -15 -2 -35 -11 -10 -23 -13 -38 -9 -11 4 -30 7 -41
6 -35 -3 -97 -3 -100 0 -6 7 -16 62 -10 57 3 -4 18 -4 33 0 38 11 136 5 140
-8z m497 -82 c4 -11 4 -37 0 -57 -6 -32 -9 -34 -15 -17 -5 11 -9 15 -9 9 -1
-11 -70 -64 -84 -64 -4 0 -7 13 -7 28 0 29 35 76 50 67 4 -3 14 8 22 25 15 35
34 39 43 9z m-478 -2 c4 -6 -17 -7 -51 -3 -45 6 -59 4 -72 -9 -19 -18 -29 -13
-20 10 4 12 19 15 72 13 36 -1 68 -6 71 -11z m190 -29 c-3 -8 -6 -5 -6 6 -1
11 2 17 5 13 3 -3 4 -12 1 -19z m-141 -9 c19 -21 19 -21 -8 -8 -15 6 -25 16
-22 20 7 12 8 12 30 -12z m-76 -4 c0 -8 -7 -15 -16 -15 -9 0 -12 5 -8 13 6 10
4 10 -7 0 -15 -15 -59 -17 -59 -4 0 11 23 18 63 20 18 1 27 -4 27 -14z m270
-41 c0 -19 47 -29 65 -14 26 22 27 3 2 -23 -29 -28 -129 -48 -126 -25 3 27 -1
58 -8 57 -18 -3 -27 2 -16 9 22 14 83 11 83 -4z m289 -15 c15 -25 17 -35 7
-53 -16 -31 -49 -61 -66 -61 -8 0 -19 -10 -25 -22 -7 -16 -15 -21 -27 -17 -12
3 -18 0 -18 -10 0 -24 47 -20 60 4 6 11 19 20 30 20 10 0 27 11 38 24 20 27
29 24 55 -16 29 -47 18 -73 -41 -98 -12 -5 -27 -20 -32 -32 -5 -13 -9 -17 -9
-10 -1 10 -6 10 -21 2 -11 -6 -20 -8 -20 -4 0 3 -7 1 -15 -6 -8 -7 -15 -9 -15
-4 0 4 -5 3 -12 -4 -7 -7 -20 -12 -31 -12 -10 0 -15 -4 -12 -10 7 -11 -23 -2
-42 13 -19 14 -16 27 4 20 11 -4 14 -3 9 5 -4 7 -18 12 -32 12 -31 0 -22 20 9
20 14 1 30 14 44 35 l22 35 -24 0 c-13 0 -25 -4 -27 -8 -1 -5 -20 -12 -41 -15
-20 -3 -35 -2 -33 2 3 4 -6 19 -20 34 -22 24 -23 27 -6 27 10 0 32 16 49 35
23 25 40 35 61 35 44 0 118 35 138 64 9 14 18 26 20 26 2 0 13 -14 23 -31z
m-554 11 c-3 -5 -11 -10 -16 -10 -6 0 -7 5 -4 10 3 6 11 10 16 10 6 0 7 -4 4
-10z m249 -268 c3 -5 -1 -9 -9 -9 -8 0 -15 4 -15 9 0 10 17 10 24 0z"/>
<path d="M3234 2251 c-33 -10 -81 -27 -106 -39 -56 -24 -77 -50 -22 -27 36 15
84 22 190 29 28 1 56 6 62 10 24 14 191 -52 221 -87 11 -14 8 -14 -23 -5 -20
6 -36 16 -36 22 0 6 -4 5 -9 -3 -8 -12 -12 -12 -26 3 -10 9 -24 15 -32 12 -8
-3 -11 -1 -8 4 4 6 -13 10 -42 11 -26 1 -63 2 -80 4 -18 1 -33 -1 -33 -6 0 -4
-21 -2 -47 6 -49 15 -111 7 -140 -17 -7 -6 -22 -8 -34 -5 -23 6 -72 -23 -99
-58 -62 -81 -88 -176 -83 -300 3 -75 2 -78 -11 -55 -28 46 -17 -3 14 -65 16
-33 30 -68 30 -77 0 -10 5 -18 10 -18 6 0 10 -9 10 -20 0 -22 49 -91 112 -157
36 -39 49 -47 70 -44 4 0 5 -5 2 -12 -7 -18 61 -48 77 -33 9 8 10 8 5 -2 -9
-15 50 -42 92 -42 15 0 32 -4 38 -9 5 -6 28 -14 52 -19 41 -10 42 -9 43 17 0
14 3 20 6 14 21 -55 181 77 245 202 25 48 68 187 68 220 0 16 4 36 8 43 5 7 2
47 -5 90 -32 176 -155 359 -272 403 -79 29 -172 33 -247 10z m-182 -218 c-14
-29 -16 -116 -2 -108 7 4 10 18 7 31 -2 13 0 24 5 24 6 0 7 11 4 24 -5 21 -3
23 16 18 12 -3 17 -7 10 -10 -14 -4 -16 -22 -3 -22 5 0 13 9 16 20 3 11 11 20
16 20 6 0 7 -9 4 -20 -9 -29 10 -25 23 5 7 14 20 25 31 25 11 0 26 3 34 6 10
4 16 -5 21 -30 5 -26 12 -36 25 -36 11 0 21 7 25 15 9 24 46 19 47 -7 1 -22 1
-22 8 2 9 32 56 36 56 5 0 -22 29 -48 57 -52 22 -3 23 13 4 49 -14 26 -13 26
7 17 30 -14 69 -76 54 -83 -7 -3 -2 -3 11 0 16 4 22 1 22 -10 0 -9 -5 -16 -11
-16 -5 0 -8 -4 -4 -10 3 -5 11 -7 18 -4 22 8 45 -28 50 -81 3 -27 9 -66 12
-85 6 -30 3 -36 -17 -45 -17 -8 -22 -17 -20 -37 3 -28 -12 -39 -21 -15 -3 7
-6 5 -6 -5 -1 -10 -5 -18 -11 -18 -14 0 -13 23 2 38 8 8 8 12 1 12 -6 0 -16
-13 -23 -30 -8 -18 -20 -30 -31 -30 -11 0 -19 -7 -19 -15 0 -9 9 -15 25 -15
14 0 25 -3 25 -6 0 -15 -22 -44 -30 -39 -5 3 -11 1 -15 -5 -3 -5 0 -10 7 -10
8 0 6 -5 -5 -11 -20 -12 -47 3 -47 27 0 7 -4 15 -9 18 -4 3 -6 -6 -3 -19 3
-20 1 -24 -11 -19 -28 10 -28 -16 -1 -39 29 -25 27 -41 -6 -50 -16 -4 -20 0
-20 19 0 13 -5 24 -11 24 -5 0 -8 -4 -5 -9 3 -4 -6 -6 -19 -3 -14 2 -31 0 -38
-6 -18 -14 -77 -13 -107 3 -15 8 -30 11 -34 8 -3 -4 -6 -1 -6 5 0 15 21 27 29
16 3 -5 15 -10 26 -12 29 -4 47 46 33 91 -23 70 -28 73 -25 12 2 -54 0 -60
-17 -57 -10 2 -15 -1 -12 -7 4 -7 -6 -10 -29 -9 -39 1 -39 2 -25 28 11 21 -3
70 -20 70 -13 0 -13 -37 0 -45 8 -5 7 -11 -1 -21 -6 -7 -9 -21 -5 -29 3 -8 1
-15 -4 -15 -15 0 -25 23 -25 60 0 33 -2 35 -35 35 l-35 0 -3 60 c-2 38 -8 63
-17 68 -8 4 -11 15 -8 23 5 14 8 12 19 -7 7 -13 14 -33 15 -44 1 -11 5 -2 9
20 6 33 4 42 -11 53 -11 7 -18 21 -17 30 2 12 -5 18 -24 20 -29 3 -40 22 -14
22 10 0 17 16 21 48 3 26 14 63 24 82 10 19 21 52 25 73 4 20 11 37 17 37 6 0
6 -7 1 -17z m255 -5 c-3 -8 -6 -5 -6 6 -1 11 2 17 5 13 3 -3 4 -12 1 -19z m33
12 c0 -5 -2 -10 -4 -10 -3 0 -8 5 -11 10 -3 6 -1 10 4 10 6 0 11 -4 11 -10z
m-350 -68 c0 -5 -7 -17 -15 -28 -15 -19 -20 -8 -9 20 6 17 24 22 24 8z m-35
-62 c1 -16 -2 -27 -6 -25 -17 11 -13 -191 5 -250 3 -11 -4 0 -16 25 -17 36
-22 66 -24 155 -2 61 -1 102 2 92 8 -25 24 -11 24 20 0 35 13 21 15 -17z m652
-272 c-3 -8 -6 -5 -6 6 -1 11 2 17 5 13 3 -3 4 -12 1 -19z m-187 -370 c0 -10
-31 -10 -48 0 -8 6 -2 9 18 9 16 0 30 -4 30 -9z"/>
<path d="M3081 1954 c0 -11 3 -14 6 -6 3 7 2 16 -1 19 -3 4 -6 -2 -5 -13z"/>
<path d="M3490 1630 c0 -11 5 -20 10 -20 6 0 10 9 10 20 0 11 -4 20 -10 20 -5
0 -10 -9 -10 -20z"/>
<path d="M3036 1615 c-3 -8 -1 -15 4 -15 6 0 10 7 10 15 0 8 -2 15 -4 15 -2 0
-6 -7 -10 -15z"/>
<path d="M3265 1470 c3 -5 8 -10 11 -10 2 0 4 5 4 10 0 6 -5 10 -11 10 -5 0
-7 -4 -4 -10z"/>
<path d="M3856 2247 c3 -10 9 -15 12 -12 3 3 0 11 -7 18 -10 9 -11 8 -5 -6z"/>
<path d="M3881 2174 c0 -11 3 -14 6 -6 3 7 2 16 -1 19 -3 4 -6 -2 -5 -13z"/>
<path d="M6296 2445 c-3 -8 -1 -15 4 -15 6 0 10 7 10 15 0 8 -2 15 -4 15 -2 0
-6 -7 -10 -15z"/>
<path d="M6330 2310 c0 -5 5 -10 10 -10 6 0 10 5 10 10 0 6 -4 10 -10 10 -5 0
-10 -4 -10 -10z"/>
<path d="M6290 2286 c0 -9 5 -16 10 -16 6 0 10 4 10 9 0 6 -4 13 -10 16 -5 3
-10 -1 -10 -9z"/>
<path d="M6446 2172 c-3 -5 1 -9 9 -9 8 0 15 4 15 9 0 4 -4 8 -9 8 -6 0 -12
-4 -15 -8z"/>
<path d="M6344 2121 c-15 -17 -35 -33 -45 -36 -11 -4 -16 -12 -12 -21 4 -10
15 -4 44 26 26 27 44 38 55 33 11 -4 15 -2 12 7 -8 25 -26 22 -54 -9z"/>
<path d="M6310 1935 c0 -5 4 -16 9 -24 7 -11 11 -10 20 7 15 28 14 31 -9 29
-11 -1 -20 -6 -20 -12z"/>
<path d="M6392 1878 c2 -6 10 -14 16 -16 7 -2 10 2 6 12 -7 18 -28 22 -22 4z"/>
<path d="M6822 1760 c-12 -5 -28 -7 -36 -4 -20 8 -30 -14 -16 -32 11 -12 14
-12 24 0 6 7 23 16 39 20 15 4 27 11 27 16 0 12 -7 12 -38 0z"/>
<path d="M6600 1750 c0 -5 5 -10 11 -10 5 0 7 5 4 10 -3 6 -8 10 -11 10 -2 0
-4 -4 -4 -10z"/>
<path d="M6695 1659 c-4 -6 -5 -13 -2 -16 7 -7 27 6 27 18 0 12 -17 12 -25 -2z"/>
<path d="M6801 1598 c-5 -13 -12 -31 -15 -42 -4 -11 -12 -16 -22 -12 -12 4
-15 0 -12 -19 3 -24 16 -35 20 -17 1 4 12 18 25 32 15 16 21 31 17 47 -6 24
10 33 19 11 3 -8 6 -6 6 5 1 25 -28 21 -38 -5z"/>
<path d="M6620 1460 c0 -5 5 -10 11 -10 5 0 7 5 4 10 -3 6 -8 10 -11 10 -2 0
-4 -4 -4 -10z"/>
<path d="M6750 1429 c0 -5 5 -7 10 -4 6 3 10 8 10 11 0 2 -4 4 -10 4 -5 0 -10
-5 -10 -11z"/>
<path d="M7691 1754 c0 -11 3 -14 6 -6 3 7 2 16 -1 19 -3 4 -6 -2 -5 -13z"/>
<path d="M7695 1714 c9 -9 18 -14 21 -11 9 9 -6 27 -22 27 -13 0 -13 -2 1 -16z"/>
<path d="M7490 1691 c0 -5 7 -14 14 -21 29 -23 82 -160 69 -174 -3 -3 0 -12 6
-20 10 -11 9 -19 -1 -35 -7 -11 -10 -23 -7 -26 11 -11 36 6 48 32 10 21 9 28
-6 42 -19 17 -24 57 -10 79 5 7 3 12 -6 12 -18 0 -30 27 -17 35 30 18 -21 85
-64 85 -14 0 -26 -4 -26 -9z m90 -51 c0 -5 -5 -10 -11 -10 -5 0 -7 5 -4 10 3
6 8 10 11 10 2 0 4 -4 4 -10z"/>
<path d="M7702 1660 c0 -14 2 -19 5 -12 2 6 2 18 0 25 -3 6 -5 1 -5 -13z"/>
<path d="M7317 1594 c-5 -6 24 -63 70 -136 12 -21 23 -46 23 -57 0 -25 19 -38
22 -14 0 10 2 29 3 43 1 14 -4 31 -12 38 -7 8 -13 9 -13 2 0 -5 -5 -10 -11
-10 -5 0 -7 5 -4 11 4 5 -5 28 -19 49 -14 22 -26 44 -26 49 0 12 -26 32 -33
25z"/>
<path d="M7308 1273 c7 -3 16 -2 19 1 4 3 -2 6 -13 5 -11 0 -14 -3 -6 -6z"/>
<path d="M7314 1249 c-3 -6 5 -23 20 -37 l26 -27 0 27 c0 30 -33 57 -46 37z"/>
<path d="M7150 1166 c0 -2 8 -10 18 -17 15 -13 16 -12 3 4 -13 16 -21 21 -21
13z"/>
<path d="M6915 1120 c3 -5 10 -10 16 -10 5 0 9 5 9 10 0 6 -7 10 -16 10 -8 0
-12 -4 -9 -10z"/>
<path d="M6960 1103 c0 -10 58 -33 83 -33 30 0 18 18 -15 22 -18 3 -41 8 -50
13 -10 4 -18 3 -18 -2z"/>
<path d="M7100 1046 c8 -8 26 -17 40 -21 l25 -7 -27 21 c-30 24 -62 30 -38 7z"/>
<path d="M6980 978 c0 -4 19 -16 43 -27 47 -22 73 -13 45 16 -16 16 -88 25
-88 11z"/>
<path d="M4780 1250 c-12 -7 -10 -9 8 -7 12 0 22 5 22 9 0 11 -12 10 -30 -2z"/>
<path d="M7600 209 c0 -5 5 -7 10 -4 6 3 10 8 10 11 0 2 -4 4 -10 4 -5 0 -10
-5 -10 -11z"/>
<path d="M8240 3367 c0 -2 20 -25 45 -52 185 -199 194 -591 20 -866 -19 -30
-43 -72 -53 -94 -11 -23 -29 -45 -40 -50 -19 -10 -112 -91 -112 -99 0 -2 9 -2
21 1 13 4 27 -2 40 -16 11 -11 24 -21 28 -21 9 0 24 -69 24 -112 0 -16 3 -28
7 -28 13 0 18 49 10 86 -11 46 7 53 59 26 37 -20 40 -20 55 -3 20 22 20 32 1
25 -8 -4 -15 -1 -15 5 0 23 27 9 71 -37 39 -40 58 -74 64 -117 1 -5 -3 -16 -8
-22 -5 -7 -5 -13 -1 -13 14 0 36 39 28 51 -3 6 -7 21 -9 35 -2 19 1 24 13 19
8 -3 19 0 24 7 4 7 8 298 8 646 l0 632 -140 0 c-77 0 -140 -1 -140 -3z m100
-31 c0 -2 -7 -7 -16 -10 -8 -3 -12 -2 -9 4 6 10 25 14 25 6z m-84 -1097 c15
-16 15 -19 2 -19 -9 0 -26 8 -38 18 -21 17 -21 18 -2 19 11 1 28 -7 38 -18z
m-66 1 c9 -6 11 -10 3 -10 -7 0 -10 -7 -7 -15 7 -18 -7 -20 -23 -4 -11 11 -7
39 6 39 3 0 13 -5 21 -10z"/>
<path d="M631 3191 c-7 -4 -9 -15 -5 -24 5 -13 1 -17 -16 -17 -17 0 -21 4 -17
20 3 11 4 20 3 20 -24 0 -69 -28 -76 -46 -5 -13 -13 -24 -17 -23 -26 4 -44 -6
-84 -43 -60 -57 -112 -125 -104 -137 7 -12 -19 -78 -39 -101 -10 -10 -12 -33
-9 -75 7 -91 7 -161 0 -179 -4 -10 -1 -16 8 -16 8 0 15 -7 15 -16 0 -14 -3
-14 -16 -3 -12 10 -17 10 -23 0 -9 -14 -120 -71 -138 -71 -7 0 -13 -4 -13 -10
0 -5 -6 -7 -14 -4 -19 7 -56 -13 -56 -30 0 -8 -7 -19 -15 -26 -12 -10 -14 -70
-15 -373 0 -383 4 -418 45 -414 12 1 19 -3 17 -12 -4 -19 16 -40 55 -56 18 -8
36 -21 39 -30 4 -9 18 -15 38 -15 18 0 38 -6 45 -12 10 -11 14 -10 22 5 12 20
38 23 45 3 3 -8 13 -12 23 -9 10 2 25 -2 33 -10 30 -31 146 -40 266 -22 26 4
67 9 92 10 25 1 67 10 93 19 27 9 53 14 58 11 5 -4 24 -2 42 4 17 6 56 18 85
27 32 9 50 20 46 26 -4 7 -2 8 5 4 17 -11 61 2 61 18 0 24 26 39 47 26 25 -16
87 1 144 40 24 16 49 30 54 30 6 0 32 19 59 43 44 39 49 47 60 112 17 88 19
165 6 165 -5 0 -10 5 -10 10 0 6 7 10 15 10 23 0 21 54 -10 300 -12 98 -29
170 -63 270 -20 58 -40 107 -44 108 -4 2 -8 14 -8 27 0 13 -16 52 -36 87 -45
79 -53 89 -68 81 -6 -3 -8 -3 -4 2 9 10 -9 45 -23 45 -6 0 -7 -6 -3 -12 4 -8
3 -9 -2 -5 -5 5 -9 14 -9 21 0 21 -67 97 -108 123 -98 62 -129 76 -139 62 -7
-10 -8 -8 -5 8 4 18 -3 23 -50 38 -30 9 -65 15 -79 12 -13 -2 -27 0 -30 5 -6
10 -156 9 -173 -1z m-19 -86 c0 -5 -5 -11 -11 -13 -6 -2 -11 4 -11 13 0 9 5
15 11 13 6 -2 11 -8 11 -13z m-117 -5 c3 -5 1 -10 -4 -10 -6 0 -11 5 -11 10 0
6 2 10 4 10 3 0 8 -4 11 -10z m203 -41 c-2 -6 -8 -10 -13 -10 -5 0 -11 4 -13
10 -2 6 4 11 13 11 9 0 15 -5 13 -11z m47 -19 c-3 -5 -12 -10 -18 -10 -7 0 -6
4 3 10 19 12 23 12 15 0z m-133 -15 c0 -5 -5 -11 -11 -13 -6 -2 -11 4 -11 13
0 9 5 15 11 13 6 -2 11 -8 11 -13z m-82 -15 c0 -5 -2 -10 -4 -10 -3 0 -8 5
-11 10 -3 6 -1 10 4 10 6 0 11 -4 11 -10z m250 -15 c0 -8 -2 -15 -4 -15 -2 0
-6 7 -10 15 -3 8 -1 15 4 15 6 0 10 -7 10 -15z m160 5 c0 -5 -7 -10 -16 -10
-8 0 -12 5 -9 10 3 6 10 10 16 10 5 0 9 -4 9 -10z m-465 -10 c3 -5 4 -14 0
-20 -8 -13 -35 -1 -35 16 0 16 26 19 35 4z m402 4 c-3 -3 -12 -4 -19 -1 -8 3
-5 6 6 6 11 1 17 -2 13 -5z m-47 -74 c0 -5 -5 -10 -11 -10 -5 0 -7 5 -4 10 3
6 8 10 11 10 2 0 4 -4 4 -10z m-349 -14 c-1 -16 -31 -15 -31 1 0 8 7 13 16 11
8 -2 15 -7 15 -12z m-79 -12 c-22 -15 -42 -12 -42 7 0 5 15 9 32 9 32 0 32 0
10 -16z m751 1 c1 -5 -6 -11 -15 -13 -11 -2 -18 3 -18 13 0 17 30 18 33 0z
m-545 -43 c2 -7 -6 -12 -17 -12 -21 0 -27 11 -14 24 9 9 26 2 31 -12z m118 -7
c-3 -9 0 -15 9 -15 8 0 15 -4 15 -10 0 -17 -25 -11 -37 9 -10 15 -10 21 0 24
19 8 19 8 13 -8z m224 -35 c0 -5 -2 -10 -4 -10 -3 0 -8 5 -11 10 -3 6 -1 10 4
10 6 0 11 -4 11 -10z m-206 -36 c9 -22 8 -24 -9 -18 -8 4 -15 12 -15 20 0 19
16 18 24 -2z m60 0 c3 -8 2 -12 -4 -9 -6 3 -10 10 -10 16 0 14 7 11 14 -7z
m216 -18 c0 -3 -4 -8 -10 -11 -5 -3 -10 -1 -10 4 0 6 5 11 10 11 6 0 10 -2 10
-4z m-610 -22 c0 -8 -4 -12 -10 -9 -5 3 -10 10 -10 16 0 5 5 9 10 9 6 0 10 -7
10 -16z m220 6 c0 -5 -5 -10 -11 -10 -5 0 -7 5 -4 10 3 6 8 10 11 10 2 0 4 -4
4 -10z m330 -29 c0 -11 -5 -23 -11 -27 -15 -9 -33 12 -26 30 9 23 37 20 37 -3z
m390 -12 c0 -6 -4 -7 -10 -4 -5 3 -10 11 -10 16 0 6 5 7 10 4 6 -3 10 -11 10
-16z m-612 -24 c-3 -3 -9 2 -12 12 -6 14 -5 15 5 6 7 -7 10 -15 7 -18z m514 3
c-11 -11 -32 -3 -32 12 0 4 9 6 21 3 13 -4 17 -9 11 -15z m-264 -23 c-3 -3 -9
2 -12 12 -6 14 -5 15 5 6 7 -7 10 -15 7 -18z m-283 -4 c3 -5 0 -13 -6 -17 -7
-4 -9 -3 -5 4 3 5 0 13 -6 15 -9 4 -10 6 -1 6 6 1 14 -3 18 -8z m124 -45 c-9
-8 -10 -7 -5 7 3 10 7 24 7 30 1 7 3 4 6 -7 3 -10 -1 -23 -8 -30z m-259 9 c-7
-8 -16 -12 -21 -9 -13 8 -1 24 18 24 13 0 13 -3 3 -15z m-50 -25 c0 -5 -5 -10
-11 -10 -5 0 -7 5 -4 10 3 6 8 10 11 10 2 0 4 -4 4 -10z m825 -40 c3 -5 1 -10
-4 -10 -6 0 -11 5 -11 10 0 6 2 10 4 10 3 0 8 -4 11 -10z m-600 -10 c3 -5 2
-10 -4 -10 -5 0 -13 5 -16 10 -3 6 -2 10 4 10 5 0 13 -4 16 -10z m300 -18 c0
-18 -20 -15 -23 4 -3 10 1 15 10 12 7 -3 13 -10 13 -16z m-367 -10 c2 -7 -2
-10 -12 -6 -9 3 -16 11 -16 16 0 13 23 5 28 -10z m132 8 c0 -5 -4 -10 -10 -10
-5 0 -10 5 -10 10 0 6 5 10 10 10 6 0 10 -4 10 -10z m355 0 c3 -5 -1 -10 -9
-10 -8 0 -18 5 -21 10 -3 6 1 10 9 10 8 0 18 -4 21 -10z m-500 -40 c3 -5 1
-10 -4 -10 -6 0 -11 5 -11 10 0 6 2 10 4 10 3 0 8 -4 11 -10z m123 -7 c5 -17
-26 -29 -40 -15 -6 6 -7 15 -3 22 9 14 37 9 43 -7z m-538 -1 c0 -13 -12 -22
-22 -16 -10 6 -1 24 13 24 5 0 9 -4 9 -8z m398 -19 c2 -8 -6 -13 -22 -13 -25
0 -33 10 -19 24 10 10 36 3 41 -11z m-71 -35 c-3 -8 -6 -5 -6 6 -1 11 2 17 5
13 3 -3 4 -12 1 -19z m313 -58 c0 -5 -2 -10 -4 -10 -3 0 -8 5 -11 10 -3 6 -1
10 4 10 6 0 11 -4 11 -10z m-640 -20 c0 -5 -2 -10 -4 -10 -3 0 -8 5 -11 10 -3
6 -1 10 4 10 6 0 11 -4 11 -10z m424 -6 c5 -14 4 -15 -9 -4 -17 14 -19 20 -6
20 5 0 12 -7 15 -16z m646 -35 c0 -5 -4 -9 -10 -9 -5 0 -10 7 -10 16 0 8 5 12
10 9 6 -3 10 -10 10 -16z m-1015 -19 c3 -5 1 -10 -4 -10 -6 0 -11 5 -11 10 0
6 2 10 4 10 3 0 8 -4 11 -10z m885 -9 c0 -5 -7 -14 -15 -21 -12 -10 -15 -10
-15 2 0 8 3 18 7 21 9 10 23 9 23 -2z m-850 -25 c0 -2 -7 -7 -16 -10 -8 -3
-12 -2 -9 4 6 10 25 14 25 6z m348 -27 c-2 -6 -8 -10 -13 -10 -5 0 -11 4 -13
10 -2 6 4 11 13 11 9 0 15 -5 13 -11z m182 -9 c0 -5 -5 -12 -11 -16 -14 -8
-33 11 -25 25 7 11 36 4 36 -9z m-580 0 c0 -5 -4 -10 -10 -10 -5 0 -10 5 -10
10 0 6 5 10 10 10 6 0 10 -4 10 -10z m480 -20 c0 -5 -4 -10 -10 -10 -5 0 -10
5 -10 10 0 6 5 10 10 10 6 0 10 -4 10 -10z m285 1 c3 -5 2 -12 -3 -15 -5 -3
-9 1 -9 9 0 17 3 19 12 6z m175 -13 c0 -7 -4 -19 -9 -27 -11 -17 -25 3 -17 24
7 18 26 20 26 3z m-79 -10 c-1 -5 -3 -8 -6 -8 -48 0 -50 0 -35 10 16 11 41 9
41 -2z m-491 -12 c0 -15 -14 -35 -21 -30 -15 9 -10 34 6 34 8 0 15 -2 15 -4z
m665 -16 c0 -7 -6 -15 -12 -17 -8 -3 -13 4 -13 17 0 13 5 20 13 18 6 -3 12
-11 12 -18z m-1187 -22 c-2 -6 -10 -14 -16 -16 -7 -2 -10 2 -6 12 7 18 28 22
22 4z m310 -7 c3 -8 -1 -12 -9 -9 -7 2 -15 10 -17 17 -3 8 1 12 9 9 7 -2 15
-10 17 -17z m529 13 c-3 -3 -12 -4 -19 -1 -8 3 -5 6 6 6 11 1 17 -2 13 -5z
m358 -43 c3 -5 1 -12 -4 -15 -5 -3 -11 1 -15 9 -6 16 9 21 19 6z m-1095 -11
c0 -5 -4 -10 -10 -10 -5 0 -10 5 -10 10 0 6 5 10 10 10 6 0 10 -4 10 -10z
m800 -15 c0 -9 -6 -12 -15 -9 -8 4 -12 10 -9 15 8 14 24 10 24 -6z m296 -42
c-10 -10 -19 5 -10 18 6 11 8 11 12 0 2 -7 1 -15 -2 -18z m-706 -21 c0 -13
-12 -22 -22 -16 -10 6 -1 24 13 24 5 0 9 -4 9 -8z m155 -6 c12 -12 11 -15 -8
-20 -32 -8 -37 -7 -37 8 0 12 10 21 28 25 2 1 10 -5 17 -13z m-629 -33 c-10
-10 -19 5 -10 18 6 11 8 11 12 0 2 -7 1 -15 -2 -18z m989 6 c12 -19 -5 -23
-22 -6 -16 16 -16 17 -1 17 9 0 20 -5 23 -11z m-145 -45 c0 -8 5 -14 12 -14 6
0 8 -3 5 -7 -8 -7 -47 25 -47 38 0 5 7 6 15 3 8 -4 15 -12 15 -20z m230 16 c0
-5 -7 -10 -16 -10 -8 0 -12 5 -9 10 3 6 10 10 16 10 5 0 9 -4 9 -10z m-550
-24 c0 -8 -4 -17 -9 -21 -12 -7 -24 12 -16 25 9 15 25 12 25 -4z m157 -22 c-3
-3 -12 -4 -19 -1 -8 3 -5 6 6 6 11 1 17 -2 13 -5z m-130 -20 c-3 -3 -12 -4
-19 -1 -8 3 -5 6 6 6 11 1 17 -2 13 -5z m530 -16 c-3 -8 -6 -5 -6 6 -1 11 2
17 5 13 3 -3 4 -12 1 -19z m-297 -4 c0 -8 -5 -12 -10 -9 -6 4 -8 11 -5 16 9
14 15 11 15 -7z m435 -5 c11 -17 -1 -21 -15 -4 -8 9 -8 15 -2 15 6 0 14 -5 17
-11z m-395 -13 c0 -3 -4 -8 -10 -11 -5 -3 -10 -1 -10 4 0 6 5 11 10 11 6 0 10
-2 10 -4z m16 -33 c-10 -10 -19 5 -10 18 6 11 8 11 12 0 2 -7 1 -15 -2 -18z
m464 12 c0 -8 -4 -15 -10 -15 -5 0 -10 7 -10 15 0 8 5 15 10 15 6 0 10 -7 10
-15z m-1253 -1 c-3 -3 -12 -4 -19 -1 -8 3 -5 6 6 6 11 1 17 -2 13 -5z m423 -4
c0 -5 -4 -10 -10 -10 -5 0 -10 5 -10 10 0 6 5 10 10 10 6 0 10 -4 10 -10z
m587 -7 c4 -10 13 -23 22 -29 8 -6 12 -18 8 -28 -9 -24 -26 -20 -33 9 -3 14
-10 25 -15 25 -5 0 -9 9 -9 20 0 25 18 26 27 3z m-360 -9 c-3 -3 -12 -4 -19
-1 -8 3 -5 6 6 6 11 1 17 -2 13 -5z m270 -16 c-3 -8 -6 -5 -6 6 -1 11 2 17 5
13 3 -3 4 -12 1 -19z m-549 -5 c2 -8 -5 -13 -17 -13 -12 0 -21 6 -21 16 0 18
31 15 38 -3z m-388 -28 c-7 -9 -15 -13 -19 -10 -3 3 1 10 9 15 21 14 24 12 10
-5z m598 3 c10 -10 14 -10 21 0 9 15 44 5 38 -12 -2 -6 -20 -10 -41 -8 -21 2
-36 -2 -36 -8 0 -7 -5 -6 -14 2 -10 9 -11 17 -4 26 13 15 21 15 36 0z m-358
-15 c0 -5 -4 -15 -10 -23 -11 -18 -25 -7 -17 15 6 15 27 21 27 8z m170 -3 c0
-12 -28 -25 -36 -17 -9 9 6 27 22 27 8 0 14 -5 14 -10z m268 -39 c3 -16 -1
-22 -10 -19 -7 3 -15 15 -16 27 -3 16 1 22 10 19 7 -3 15 -15 16 -27z m-395
-11 c3 -11 1 -20 -4 -20 -5 0 -9 9 -9 20 0 11 2 20 4 20 2 0 6 -9 9 -20z m807
-10 c-8 -5 -22 -10 -30 -10 -13 0 -13 1 0 10 8 5 22 10 30 10 13 0 13 -1 0
-10z m-1053 -42 c-3 -8 -6 -5 -6 6 -1 11 2 17 5 13 3 -3 4 -12 1 -19z m484 -1
c-10 -9 -11 -8 -5 6 3 10 9 15 12 12 3 -3 0 -11 -7 -18z m92 8 c1 -5 -6 -11
-15 -13 -11 -2 -18 3 -18 13 0 17 30 18 33 0z m187 -10 c0 -8 -6 -15 -14 -15
-8 0 -16 7 -20 15 -4 10 1 15 14 15 11 0 20 -7 20 -15z m-490 -15 c0 -5 -4
-10 -10 -10 -5 0 -10 5 -10 10 0 6 5 10 10 10 6 0 10 -4 10 -10z m-293 -36 c9
-23 -13 -40 -32 -24 -12 10 -13 16 -4 26 15 18 28 18 36 -2z m268 -24 c-3 -5
-13 -10 -21 -10 -8 0 -14 5 -14 10 0 6 9 10 21 10 11 0 17 -4 14 -10z m185
-29 c0 -11 -5 -23 -12 -27 -8 -5 -9 -2 -4 11 4 11 2 22 -6 27 -10 6 -8 8 5 8
10 0 17 -8 17 -19z m-195 -31 c3 -5 2 -10 -4 -10 -5 0 -13 5 -16 10 -3 6 -2
10 4 10 5 0 13 -4 16 -10z"/>
<path d="M6993 3145 c-1 -30 0 -55 2 -55 3 0 17 18 31 40 28 42 26 53 -11 64
-18 5 -20 1 -22 -49z"/>
<path d="M7425 3169 c-4 -6 -5 -12 -2 -15 2 -3 7 2 10 11 7 17 1 20 -8 4z"/>
<path d="M1731 2889 c33 -33 80 -143 81 -188 l0 -41 40 36 c56 51 95 64 185
64 43 0 105 5 138 11 33 6 81 12 107 13 85 4 60 12 -69 25 -148 14 -292 41
-401 76 -95 30 -108 31 -81 4z"/>
<path d="M7190 2852 c0 -5 6 -15 14 -21 8 -7 17 -22 20 -35 4 -15 16 -26 33
-30 16 -4 37 -9 48 -12 17 -5 17 -3 -5 18 -48 44 -110 89 -110 80z"/>
<path d="M7757 2653 c-4 -3 -6 -31 -5 -62 1 -39 2 -45 5 -22 3 19 11 40 19 48
8 8 14 21 14 29 0 14 -21 19 -33 7z"/>
<path d="M1537 2545 c7 -46 9 -51 16 -33 2 8 -1 27 -9 43 l-13 30 6 -40z"/>
<path d="M1550 2474 c0 -7 7 -89 16 -181 12 -120 15 -217 10 -340 l-5 -172 48
25 c83 43 224 42 274 -3 24 -23 21 -7 -7 30 -13 18 -29 49 -36 70 -6 20 -40
69 -77 108 -90 98 -123 153 -123 204 0 37 14 98 35 148 5 12 3 17 -8 17 -8 0
-25 20 -38 44 -13 25 -27 42 -31 40 -4 -3 -8 -1 -8 4 0 5 -11 12 -25 14 -16 4
-25 1 -25 -8z"/>
<path d="M8110 2124 c0 -8 5 -12 10 -9 6 4 8 11 5 16 -9 14 -15 11 -15 -7z"/>
<path d="M8335 2100 c3 -5 8 -10 11 -10 2 0 4 5 4 10 0 6 -5 10 -11 10 -5 0
-7 -4 -4 -10z"/>
<path d="M8097 2093 c-4 -3 -7 -13 -7 -22 1 -13 3 -13 11 2 11 19 8 33 -4 20z"/>
<path d="M8340 2055 c0 -8 2 -15 4 -15 2 0 6 7 10 15 3 8 1 15 -4 15 -6 0 -10
-7 -10 -15z"/>
<path d="M8178 1984 c-5 -4 -8 -16 -8 -28 0 -14 3 -17 11 -9 6 6 9 19 7 28 -1
9 -6 13 -10 9z"/>
<path d="M2510 1851 c0 -6 4 -13 10 -16 6 -3 7 1 4 9 -7 18 -14 21 -14 7z"/>
<path d="M8396 1843 c-6 -14 -5 -15 5 -6 7 7 10 15 7 18 -3 3 -9 -2 -12 -12z"/>
<path d="M2000 1722 c19 -17 38 -31 43 -32 4 0 7 -7 7 -15 0 -25 15 -17 27 14
11 29 10 30 -31 39 -22 5 -50 13 -61 17 -12 5 -6 -4 15 -23z"/>
<path d="M8318 1733 c7 -3 16 -2 19 1 4 3 -2 6 -13 5 -11 0 -14 -3 -6 -6z"/>
<path d="M1310 1570 c-74 -31 -178 -74 -230 -94 -72 -28 -84 -35 -50 -29 73
13 210 7 275 -12 68 -20 160 -61 220 -98 l40 -25 0 31 c0 27 7 34 70 69 39 22
61 37 50 34 -11 -3 -53 -12 -94 -20 -63 -11 -77 -11 -88 0 -8 7 -22 19 -31 26
-42 32 -58 121 -27 152 16 16 19 27 8 25 -5 -1 -69 -27 -143 -59z"/>
<path d="M2095 1540 c9 -16 20 -30 26 -30 6 0 1 14 -11 30 -12 17 -23 30 -26
30 -2 0 2 -13 11 -30z"/>
<path d="M8126 1505 c-19 -20 -33 -25 -74 -25 -34 0 -63 -7 -84 -20 -18 -11
-47 -20 -64 -20 -68 0 -85 -65 -27 -100 36 -21 37 -23 18 -36 -22 -16 -35 -18
-35 -4 0 6 -7 10 -15 10 -8 0 -15 7 -15 15 0 8 -3 15 -7 15 -13 -1 -43 -27
-43 -37 0 -6 -11 -8 -25 -5 -27 5 -58 -14 -52 -32 6 -15 -21 -67 -48 -92 -47
-44 -60 -206 -30 -366 l18 -97 28 6 c22 4 30 1 36 -13 3 -11 11 -22 16 -25 18
-12 -2 -39 -29 -39 -24 0 -25 -3 -19 -27 3 -16 13 -41 21 -57 8 -16 14 -37 14
-47 0 -10 6 -21 13 -25 6 -4 9 -4 5 1 -4 4 -3 16 3 26 10 20 63 27 74 9 3 -5
-3 -10 -14 -10 -14 0 -23 -9 -27 -26 -7 -29 10 -48 36 -38 12 4 12 3 3 -7 -10
-10 -18 -10 -38 -1 -36 17 -38 15 -19 -13 9 -14 20 -40 24 -58 4 -17 12 -31
18 -30 6 2 9 -4 6 -12 -4 -9 1 -18 11 -21 22 -9 65 -52 65 -65 0 -6 12 -1 26
10 34 27 45 26 73 -3 28 -30 21 -63 -14 -72 -30 -7 -25 -19 41 -89 32 -35 44
-43 39 -27 -4 14 -2 22 5 22 8 0 10 -10 7 -27 -10 -54 -13 -53 239 -53 l234 0
0 231 c0 151 -3 228 -10 224 -5 -3 -10 1 -10 10 0 9 5 13 10 10 6 -4 10 11 10
38 0 31 -5 47 -15 51 -20 7 -20 65 0 72 11 5 12 10 4 26 -8 14 -8 23 0 31 7 7
11 83 11 224 l0 213 -24 0 c-30 0 -43 17 -42 55 1 25 7 32 34 40 31 9 32 10
32 68 0 45 -4 63 -17 73 -24 18 -49 17 -77 -1 -21 -14 -24 -13 -45 9 -20 21
-26 23 -42 13 -16 -10 -24 -7 -50 19 -27 27 -29 34 -20 53 9 17 9 21 -2 21 -7
0 -24 11 -37 25 -14 15 -35 25 -52 25 -18 0 -38 -10 -52 -25z m64 11 c0 -3 -4
-8 -10 -11 -5 -3 -10 -1 -10 4 0 6 5 11 10 11 6 0 10 -2 10 -4z m-90 -230 c0
-19 -14 -28 -34 -20 -13 5 -14 9 -5 20 15 18 39 18 39 0z m-280 -32 c0 -8 -4
-12 -10 -9 -5 3 -10 10 -10 16 0 5 5 9 10 9 6 0 10 -7 10 -16z m-66 0 c23 -9
20 -23 -4 -21 -11 1 -20 7 -20 14 0 15 2 15 24 7z m595 -20 c2 -2 2 -7 -2 -10
-9 -9 -57 5 -57 16 0 9 47 4 59 -6z m-354 -54 c-4 -14 -15 -20 -36 -20 l-30 0
28 35 c22 28 29 31 36 20 4 -9 5 -24 2 -35z m-270 20 c4 -6 16 -10 27 -8 28 4
34 -18 9 -31 -16 -9 -24 -7 -41 11 -11 12 -20 25 -20 30 0 12 18 10 25 -2z
m445 -4 c6 -8 10 -25 8 -38 -4 -28 -52 -37 -83 -15 -17 13 -18 18 -7 41 9 19
19 26 41 26 16 0 34 -7 41 -14z m-317 -20 c28 -21 21 -43 -15 -49 -18 -3 -37
0 -43 6 -7 7 -4 8 9 3 18 -6 19 -5 4 11 -30 35 6 58 45 29z m95 -63 c3 -23 -4
-27 -40 -24 -12 2 -18 -5 -18 -18 0 -27 -39 -54 -57 -40 -7 6 -11 15 -8 19 7
11 -22 33 -34 26 -16 -10 -41 5 -41 24 0 29 15 31 40 5 12 -13 30 -22 40 -20
13 3 17 -1 13 -11 -3 -8 -1 -14 5 -14 6 0 9 11 7 25 -1 15 3 25 10 25 7 0 16
7 19 16 9 25 60 14 64 -13z m53 -61 c4 -4 9 -16 11 -26 2 -12 18 -24 43 -33
22 -7 44 -18 49 -23 12 -12 -20 -61 -37 -54 -8 3 -19 -9 -28 -28 -10 -25 -21
-34 -44 -36 -48 -6 -76 55 -37 84 15 12 15 13 1 14 -22 0 -44 26 -29 35 15 9
12 25 -4 19 -19 -7 -31 33 -16 51 12 14 77 12 91 -3z m412 -39 c3 -5 -6 -9
-19 -9 -13 -1 -21 2 -18 7 6 11 31 12 37 2z m-702 -25 c10 -18 9 -20 -5 -15
-19 8 -19 6 -4 -28 10 -21 9 -28 -2 -35 -19 -12 -32 -2 -26 18 3 10 1 24 -5
32 -9 13 -10 12 -5 -2 7 -22 -13 -35 -25 -17 -15 23 -11 52 6 45 8 -3 15 -1
15 5 0 6 5 7 10 4 6 -3 10 -1 10 4 0 19 19 12 31 -11z m99 -47 c5 -11 10 -30
10 -42 l0 -22 -25 23 c-14 13 -25 20 -25 15 0 -5 -6 -3 -12 4 -11 10 -9 15 6
27 26 19 33 18 46 -5z m555 10 c3 -6 -4 -15 -16 -22 -17 -9 -23 -8 -30 2 -5 8
-9 17 -9 22 0 10 48 9 55 -2z m-241 -60 c29 -32 17 -56 -29 -56 -47 0 -58 22
-26 54 26 26 33 26 55 2z m164 -117 c31 -21 27 -68 -6 -72 -24 -4 -72 22 -72
38 0 12 37 50 48 50 4 0 18 -7 30 -16z m-522 -3 c-4 -5 0 -11 6 -14 7 -2 9 -8
5 -13 -9 -10 -28 16 -21 28 3 4 7 8 10 8 3 0 3 -4 0 -9z m168 -55 c-7 -18 27
-38 45 -27 10 6 9 12 -4 25 -9 9 -13 16 -8 16 36 0 44 -63 11 -81 l-22 -12 22
-8 c29 -11 29 -45 0 -53 -16 -4 -28 0 -41 15 -16 21 -16 23 -1 40 11 12 13 19
5 19 -20 0 -36 47 -21 65 16 19 21 19 14 1z m466 -16 c10 -6 12 -12 5 -19 -13
-13 -57 -2 -48 12 4 6 0 8 -11 4 -10 -4 -15 -3 -11 3 8 13 45 13 65 0z m84
-42 c8 -14 7 -21 -6 -34 -23 -23 -47 -4 -40 32 5 28 28 29 46 2z m-734 -68 c0
-5 -2 -10 -4 -10 -3 0 -8 5 -11 10 -3 6 -1 10 4 10 6 0 11 -4 11 -10z m593
-24 c19 -14 23 -41 7 -51 -5 -3 -7 -20 -3 -36 l6 -31 -32 17 c-18 9 -40 13
-51 10 -30 -9 -32 11 -5 51 14 20 25 41 25 45 0 13 33 10 53 -5z m-513 -37 c0
-6 -4 -7 -10 -4 -5 3 -10 11 -10 16 0 6 5 7 10 4 6 -3 10 -11 10 -16z m584
-27 c3 -5 -1 -9 -9 -9 -8 0 -15 4 -15 9 0 4 4 8 9 8 6 0 12 -4 15 -8z m-422
-38 c14 -31 4 -54 -24 -52 -20 2 -23 8 -23 43 0 36 2 41 18 37 10 -3 23 -15
29 -28z m230 19 c20 -23 6 -68 -18 -59 -9 3 -27 6 -40 6 -29 0 -32 24 -7 52
20 23 45 23 65 1z m-422 -3 c0 -5 -2 -10 -4 -10 -3 0 -8 5 -11 10 -3 6 -1 10
4 10 6 0 11 -4 11 -10z m630 -16 c0 -8 -4 -12 -10 -9 -5 3 -10 10 -10 16 0 5
5 9 10 9 6 0 10 -7 10 -16z m50 -34 c0 -5 -4 -10 -10 -10 -5 0 -10 5 -10 10 0
6 5 10 10 10 6 0 10 -4 10 -10z m-642 -77 c15 -33 16 -54 1 -33 -8 12 -12 12
-16 2 -7 -18 -32 27 -25 46 7 20 26 13 40 -15z m25 6 c-4 -13 -9 -17 -15 -11
-11 11 -3 32 12 32 4 0 6 -9 3 -21z m17 -30 c-7 -11 -14 -19 -16 -16 -7 7 7
37 17 37 6 0 5 -9 -1 -21z m555 -146 c-20 -14 -35 -17 -35 -7 0 12 35 32 44
27 5 -4 1 -12 -9 -20z m-415 -33 c0 -5 -4 -10 -10 -10 -5 0 -10 5 -10 10 0 6
5 10 10 10 6 0 10 -4 10 -10z m73 -67 c-7 -2 -19 -2 -25 0 -7 3 -2 5 12 5 14
0 19 -2 13 -5z m297 1 c0 -12 -26 -30 -37 -27 -18 6 -3 33 18 33 10 0 19 -3
19 -6z"/>
<path d="M7990 965 c-10 -12 -10 -15 4 -15 9 0 16 7 16 15 0 8 -2 15 -4 15 -2
0 -9 -7 -16 -15z"/>
<path d="M1902 1500 c-49 -11 -52 -21 -7 -18 22 1 46 8 53 15 16 15 7 16 -46
3z"/>
<path d="M1 982 c0 -502 1 -506 18 -437 24 97 35 115 71 115 17 0 30 -3 30 -7
0 -12 -82 -156 -101 -177 -17 -18 -19 -38 -19 -248 l0 -228 39 0 39 0 -26 68
c-30 82 -42 252 -22 341 17 77 69 186 119 249 23 29 39 56 37 61 -3 5 2 15 12
22 15 13 16 12 3 -3 -18 -24 0 -23 30 1 38 29 82 49 191 87 152 53 144 45 184
184 14 46 42 116 62 155 47 89 157 202 230 235 28 13 50 25 48 27 -2 2 -35 -5
-72 -16 -131 -39 -243 -54 -392 -54 -115 0 -145 3 -160 16 -10 9 -27 13 -42
10 -33 -6 -137 29 -217 73 l-63 34 1 -508z m129 391 c0 -20 -10 -77 -22 -126
-17 -68 -26 -91 -40 -95 -11 -2 -17 -10 -14 -17 3 -8 1 -26 -4 -42 -5 -18 -7
0 -3 52 3 46 15 109 29 150 24 69 32 93 33 108 1 4 6 7 11 7 6 0 10 -17 10
-37z m193 -60 c2 -16 6 -33 9 -39 10 -15 -18 -145 -51 -236 -16 -46 -37 -105
-47 -133 -9 -27 -26 -70 -36 -95 -17 -42 -18 -43 -12 -10 3 19 33 127 66 240
65 220 66 222 55 290 -5 32 -4 40 3 28 5 -9 11 -29 13 -45z m37 13 c0 -8 -4
-18 -10 -21 -5 -3 -10 3 -10 14 0 12 5 21 10 21 6 0 10 -6 10 -14z m-143 -313
c-23 -65 -25 -68 -32 -61 -9 9 37 118 50 118 1 0 -7 -26 -18 -57z m181 0 c-9
-10 -41 -59 -72 -110 -31 -51 -62 -95 -68 -99 -12 -8 -11 -5 29 59 13 20 20
37 16 37 -5 0 -3 4 2 8 6 4 19 23 29 41 11 19 31 45 45 58 31 27 40 30 19 6z
m-371 -105 c-2 -13 -4 -5 -4 17 -1 22 1 32 4 23 2 -10 2 -28 0 -40z m154 -10
c-3 -21 -6 -26 -9 -15 -3 17 3 47 11 47 2 0 1 -15 -2 -32z m-17 -90 c-4 -29
-10 -57 -15 -62 -12 -13 -11 2 2 64 14 65 21 64 13 -2z"/>
<path d="M8500 1390 c0 -5 5 -10 10 -10 6 0 10 5 10 10 0 6 -4 10 -10 10 -5 0
-10 -4 -10 -10z"/>
<path d="M2580 1330 c0 -5 10 -15 23 -21 22 -12 22 -12 3 10 -21 23 -26 26
-26 11z"/>
<path d="M1040 1275 c0 -8 7 -15 15 -15 9 0 12 6 9 15 -4 8 -10 15 -15 15 -5
0 -9 -7 -9 -15z"/>
<path d="M955 1240 c-3 -5 -1 -10 4 -10 6 0 11 5 11 10 0 6 -2 10 -4 10 -3 0
-8 -4 -11 -10z"/>
<path d="M1728 1158 c103 -137 135 -210 176 -398 19 -86 25 -100 31 -78 9 34
73 57 112 39 13 -6 23 -7 23 -1 0 5 -16 14 -37 19 -35 10 -93 56 -93 73 0 5 5
6 10 3 22 -13 8 8 -24 38 -19 18 -40 50 -48 72 -22 67 -114 218 -159 260 l-42
40 51 -67z"/>
<path d="M1400 1150 c0 -5 5 -10 10 -10 6 0 10 5 10 10 0 6 -4 10 -10 10 -5 0
-10 -4 -10 -10z"/>
<path d="M1320 1120 c0 -5 7 -7 15 -4 8 4 15 8 15 10 0 2 -7 4 -15 4 -8 0 -15
-4 -15 -10z"/>
<path d="M1545 1100 c-3 -5 -1 -10 4 -10 6 0 11 5 11 10 0 6 -2 10 -4 10 -3 0
-8 -4 -11 -10z"/>
<path d="M1560 1070 c0 -5 5 -10 11 -10 5 0 7 5 4 10 -3 6 -8 10 -11 10 -2 0
-4 -4 -4 -10z"/>
<path d="M1016 1055 c-9 -26 -7 -32 5 -12 6 10 9 21 6 23 -2 3 -7 -2 -11 -11z"/>
<path d="M2240 1049 c0 -57 -67 -219 -84 -202 -4 4 -4 0 0 -10 4 -11 1 -17 -7
-17 -7 0 -9 -3 -6 -7 4 -4 -4 -19 -19 -34 -14 -15 -24 -35 -22 -45 4 -25 35
-30 41 -7 4 16 5 15 6 -2 0 -12 -4 -26 -9 -31 -7 -7 -2 -14 15 -22 23 -11 26
-9 35 16 18 49 31 68 55 83 l24 14 -29 32 c-33 35 -38 69 -16 111 15 29 33
142 22 142 -3 0 -6 -9 -6 -21z"/>
<path d="M800 1049 c0 -5 5 -7 10 -4 6 3 10 8 10 11 0 2 -4 4 -10 4 -5 0 -10
-5 -10 -11z"/>
<path d="M901 1004 c0 -11 3 -14 6 -6 3 7 2 16 -1 19 -3 4 -6 -2 -5 -13z"/>
<path d="M1364 998 c7 -54 29 -75 39 -38 3 13 0 20 -9 20 -8 0 -14 6 -14 14 0
8 -4 17 -9 21 -5 3 -8 -5 -7 -17z"/>
<path d="M1415 1000 c-3 -5 1 -10 9 -10 9 0 16 5 16 10 0 6 -4 10 -9 10 -6 0
-13 -4 -16 -10z"/>
<path d="M6316 994 c-5 -14 -4 -15 9 -4 17 14 19 20 6 20 -5 0 -12 -7 -15 -16z"/>
<path d="M1571 982 c-13 -25 -14 -32 -2 -32 9 0 23 41 16 48 -2 2 -8 -5 -14
-16z"/>
<path d="M1180 970 c0 -5 5 -10 10 -10 6 0 10 5 10 10 0 6 -4 10 -10 10 -5 0
-10 -4 -10 -10z"/>
<path d="M920 950 c-8 -5 -10 -10 -5 -10 6 0 17 5 25 10 8 5 11 10 5 10 -5 0
-17 -5 -25 -10z"/>
<path d="M1115 950 c3 -5 8 -10 11 -10 2 0 4 5 4 10 0 6 -5 10 -11 10 -5 0 -7
-4 -4 -10z"/>
<path d="M1280 935 c-8 -9 -8 -15 -2 -15 12 0 26 19 19 26 -2 2 -10 -2 -17
-11z"/>
<path d="M1502 936 c7 -8 15 -12 17 -11 5 6 -10 25 -20 25 -5 0 -4 -6 3 -14z"/>
<path d="M1195 930 c-3 -6 1 -7 9 -4 18 7 21 14 7 14 -6 0 -13 -4 -16 -10z"/>
<path d="M1630 920 c0 -5 5 -10 11 -10 5 0 7 5 4 10 -3 6 -8 10 -11 10 -2 0
-4 -4 -4 -10z"/>
<path d="M1026 894 c-9 -24 -7 -28 9 -14 17 14 20 30 6 30 -5 0 -12 -7 -15
-16z"/>
<path d="M1305 890 c3 -5 8 -10 11 -10 2 0 4 5 4 10 0 6 -5 10 -11 10 -5 0 -7
-4 -4 -10z"/>
<path d="M890 860 c0 -5 5 -10 10 -10 6 0 10 5 10 10 0 6 -4 10 -10 10 -5 0
-10 -4 -10 -10z"/>
<path d="M1496 861 c-4 -7 -5 -15 -2 -18 9 -9 19 4 14 18 -4 11 -6 11 -12 0z"/>
<path d="M1586 854 c-5 -14 -4 -15 9 -4 17 14 19 20 6 20 -5 0 -12 -7 -15 -16z"/>
<path d="M1247 836 c-6 -14 0 -26 14 -26 3 0 9 9 12 20 6 23 -18 28 -26 6z"/>
<path d="M1410 826 c0 -9 5 -16 10 -16 6 0 10 4 10 9 0 6 -4 13 -10 16 -5 3
-10 -1 -10 -9z"/>
<path d="M810 815 c-10 -13 -9 -15 9 -15 11 0 21 4 21 9 0 18 -18 21 -30 6z"/>
<path d="M860 804 c0 -8 5 -12 10 -9 6 3 10 10 10 16 0 5 -4 9 -10 9 -5 0 -10
-7 -10 -16z"/>
<path d="M915 790 c3 -5 8 -10 11 -10 2 0 4 5 4 10 0 6 -5 10 -11 10 -5 0 -7
-4 -4 -10z"/>
<path d="M5975 624 c-80 -86 -144 -158 -142 -160 2 -3 39 12 81 32 73 35 77
39 89 82 6 24 17 47 24 49 7 3 13 12 13 20 0 8 5 11 10 8 6 -3 10 4 10 17 0
18 2 20 10 8 8 -12 10 -11 10 6 0 11 11 35 25 54 26 35 28 40 21 40 -3 0 -70
-70 -151 -156z"/>
<path d="M1350 760 c0 -5 5 -10 10 -10 6 0 10 5 10 10 0 6 -4 10 -10 10 -5 0
-10 -4 -10 -10z"/>
<path d="M1410 750 c0 -13 18 -22 24 -11 3 5 -1 11 -9 15 -8 3 -15 1 -15 -4z"/>
<path d="M1280 720 c0 -5 7 -10 15 -10 8 0 15 5 15 10 0 6 -7 10 -15 10 -8 0
-15 -4 -15 -10z"/>
<path d="M1621 714 c0 -11 3 -14 6 -6 3 7 2 16 -1 19 -3 4 -6 -2 -5 -13z"/>
<path d="M4139 712 c-55 -37 -87 -68 -103 -99 -13 -27 -22 -33 -49 -33 -56 0
-104 -19 -140 -56 -31 -32 -35 -42 -36 -92 0 -42 -5 -60 -23 -79 -14 -15 -23
-38 -24 -64 -1 -23 -8 -47 -16 -54 -18 -18 -56 -2 -68 29 -5 14 -19 30 -31 36
-17 10 -20 9 -14 -1 6 -9 2 -10 -16 -4 -13 4 -42 8 -64 8 -22 0 -32 2 -22 4 9
3 17 9 17 14 0 12 -81 11 -100 -1 -12 -8 -9 -10 12 -10 20 0 26 -4 22 -15 -4
-8 -9 -13 -13 -11 -4 3 -8 -5 -8 -17 -1 -12 1 -17 5 -12 10 15 28 13 51 -7 11
-9 22 -14 25 -11 3 4 6 -3 6 -14 0 -12 -6 -23 -12 -25 -20 -7 -78 32 -84 57
-3 13 -15 26 -27 29 -41 11 -96 -82 -88 -149 2 -11 11 -34 21 -52 15 -26 16
-34 5 -43 -10 -8 -20 -5 -42 16 -51 48 -68 54 -145 56 -62 2 -80 -2 -111 -21
-37 -22 -77 -66 -77 -83 0 -5 363 -8 845 -8 789 1 845 2 845 18 0 9 -4 31 -9
49 -8 28 -6 34 26 64 40 39 73 98 73 132 0 13 -7 48 -16 78 -22 74 -72 121
-146 137 -83 19 -130 7 -188 -45 -28 -25 -50 -40 -50 -33 0 6 -5 8 -11 5 -6
-4 -2 10 9 32 23 45 40 119 25 110 -5 -3 -8 6 -5 23 5 38 -29 99 -74 130 -47
31 -137 38 -175 12z m152 -119 c-8 -15 -10 -15 -11 -2 0 17 10 32 18 25 2 -3
-1 -13 -7 -23z m-306 -96 c30 -18 31 -39 1 -27 -20 7 -25 6 -28 -7 -3 -15 -5
-15 -22 2 -18 18 -18 19 0 32 21 16 23 16 49 0z m-42 -69 c16 -16 34 -28 39
-28 21 0 70 33 78 53 l9 22 0 -22 c1 -13 -11 -30 -30 -44 -59 -41 -149 -5
-149 60 1 24 1 25 11 6 6 -11 25 -32 42 -47z m-103 42 c0 -5 -5 -10 -11 -10
-5 0 -7 5 -4 10 3 6 8 10 11 10 2 0 4 -4 4 -10z m155 -20 c3 -6 -1 -7 -9 -4
-18 7 -21 14 -7 14 6 0 13 -4 16 -10z m-100 -30 c11 -17 -5 -32 -21 -19 -8 6
-14 15 -14 20 0 12 27 11 35 -1z m690 -10 c3 -5 -1 -10 -9 -10 -9 0 -16 5 -16
10 0 6 4 10 9 10 6 0 13 -4 16 -10z m57 -37 c35 -40 48 -80 37 -112 -6 -17
-15 -31 -20 -31 -5 0 -2 14 7 31 15 31 15 33 -13 73 -24 33 -35 41 -58 39 -16
-1 -31 -6 -34 -10 -9 -12 -61 -34 -61 -25 0 13 75 51 101 52 14 0 33 -8 41
-17z m-24 -30 c2 -8 -6 -13 -22 -13 -25 0 -33 10 -19 24 10 10 36 3 41 -11z
m-153 -33 c3 -5 1 -10 -4 -10 -6 0 -11 5 -11 10 0 6 2 10 4 10 3 0 8 -4 11
-10z m183 -22 c-4 -31 -23 -33 -26 -3 -1 17 3 25 14 25 10 0 14 -7 12 -22z
m-1138 3 c0 -5 -7 -12 -16 -15 -14 -5 -15 -4 -4 9 14 17 20 19 20 6z m1100 -1
c0 -5 -2 -10 -4 -10 -3 0 -8 5 -11 10 -3 6 -1 10 4 10 6 0 11 -4 11 -10z m-10
-30 c0 -5 -4 -10 -10 -10 -5 0 -10 5 -10 10 0 6 5 10 10 10 6 0 10 -4 10 -10z
m-1130 -44 c0 -2 3 -11 6 -19 3 -10 -3 -20 -17 -27 -19 -11 -21 -10 -15 5 3
10 1 24 -5 31 -9 11 -7 14 10 14 11 0 21 -2 21 -4z m290 -16 c0 -5 -15 -17
-32 -25 -28 -13 -30 -13 -13 -1 11 8 25 20 30 25 13 13 15 13 15 1z m875 0
c-3 -5 -14 -10 -23 -9 -14 0 -13 2 3 9 27 11 27 11 20 0z m-1055 -10 c0 -5 -4
-10 -10 -10 -5 0 -10 5 -10 10 0 6 5 10 10 10 6 0 10 -4 10 -10z m185 -20 c-3
-5 -12 -10 -18 -10 -7 0 -6 4 3 10 19 12 23 12 15 0z m-55 -30 c0 -5 -5 -10
-11 -10 -5 0 -7 5 -4 10 3 6 8 10 11 10 2 0 4 -4 4 -10z m-50 -29 c0 -5 -7
-12 -16 -15 -14 -5 -15 -4 -4 9 14 17 20 19 20 6z m-463 -27 c-3 -3 -12 -4
-19 -1 -8 3 -5 6 6 6 11 1 17 -2 13 -5z m546 -32 c-4 -18 -8 -20 -19 -11 -12
10 -11 14 3 24 22 16 24 15 16 -13z m92 8 c3 -5 1 -10 -4 -10 -6 0 -11 5 -11
10 0 6 2 10 4 10 3 0 8 -4 11 -10z m-617 -7 c-10 -2 -26 -2 -35 0 -10 3 -2 5
17 5 19 0 27 -2 18 -5z m1053 -30 c13 -16 12 -17 -3 -4 -10 7 -18 15 -18 17 0
8 8 3 21 -13z"/>
<path d="M760 710 c0 -11 48 -25 57 -16 9 8 3 12 -29 20 -17 4 -28 2 -28 -4z"/>
<path d="M938 713 c7 -3 16 -2 19 1 4 3 -2 6 -13 5 -11 0 -14 -3 -6 -6z"/>
<path d="M1356 693 c-6 -14 -5 -15 5 -6 7 7 10 15 7 18 -3 3 -9 -2 -12 -12z"/>
<path d="M1485 690 c-3 -5 -1 -10 4 -10 6 0 11 5 11 10 0 6 -2 10 -4 10 -3 0
-8 -4 -11 -10z"/>
<path d="M865 680 c3 -5 8 -10 11 -10 2 0 4 5 4 10 0 6 -5 10 -11 10 -5 0 -7
-4 -4 -10z"/>
<path d="M1240 670 c0 -5 5 -10 10 -10 6 0 10 5 10 10 0 6 -4 10 -10 10 -5 0
-10 -4 -10 -10z"/>
<path d="M535 661 c-6 -11 9 -23 19 -14 9 9 7 23 -3 23 -6 0 -12 -4 -16 -9z"/>
<path d="M1537 663 c-12 -12 -7 -22 8 -17 8 4 15 10 15 15 0 11 -14 12 -23 2z"/>
<path d="M1416 645 c-9 -26 -7 -32 5 -12 6 10 9 21 6 23 -2 3 -7 -2 -11 -11z"/>
<path d="M1715 640 c3 -5 10 -10 16 -10 5 0 9 5 9 10 0 6 -7 10 -16 10 -8 0
-12 -4 -9 -10z"/>
<path d="M1931 490 c-1 -176 -18 -352 -46 -462 l-7 -28 231 0 c198 0 231 2
231 15 0 18 -16 90 -37 165 -30 109 -73 178 -73 117 0 -13 -3 -27 -7 -31 -5
-4 -8 -11 -8 -14 -1 -4 -12 -25 -27 -47 -39 -60 -110 -125 -154 -140 -59 -21
-70 -4 -82 125 -4 58 -8 130 -7 160 7 217 6 258 -3 280 -8 19 -11 -16 -11
-140z"/>
<path d="M980 630 c0 -5 5 -10 10 -10 6 0 10 5 10 10 0 6 -4 10 -10 10 -5 0
-10 -4 -10 -10z"/>
<path d="M1184 618 c-3 -4 2 -8 10 -8 8 0 17 4 20 8 3 5 -2 9 -10 9 -8 0 -17
-4 -20 -9z"/>
<path d="M1580 590 c-7 -13 -7 -20 -1 -20 6 0 15 9 21 20 7 13 7 20 1 20 -6 0
-15 -9 -21 -20z"/>
<path d="M870 580 c0 -6 7 -10 15 -10 8 0 15 2 15 4 0 2 -7 6 -15 10 -8 3 -15
1 -15 -4z"/>
<path d="M395 561 c-3 -5 -1 -12 4 -15 5 -3 11 1 15 9 6 16 -9 21 -19 6z"/>
<path d="M550 545 c-11 -13 -10 -14 4 -9 9 3 16 10 16 15 0 13 -6 11 -20 -6z"/>
<path d="M767 543 c-3 -5 6 -13 19 -20 20 -9 24 -8 24 5 0 8 -3 12 -7 9 -3 -4
-12 -2 -19 4 -7 5 -14 6 -17 2z"/>
<path d="M1420 534 c0 -14 3 -14 15 -4 8 7 15 14 15 16 0 2 -7 4 -15 4 -8 0
-15 -7 -15 -16z"/>
<path d="M862 520 c-7 -11 -20 -20 -30 -20 -10 0 -19 -7 -19 -15 0 -20 4 -19
35 6 25 19 27 19 39 3 17 -23 26 -13 14 17 -5 13 -10 20 -11 14 0 -5 -4 -5 -8
2 -6 9 -11 7 -20 -7z"/>
<path d="M1196 525 c-4 -10 1 -15 16 -15 17 0 18 2 8 15 -7 8 -14 15 -15 15
-2 0 -5 -7 -9 -15z"/>
<path d="M726 505 c4 -8 7 -15 9 -15 2 0 5 7 9 15 3 9 0 15 -9 15 -9 0 -12 -6
-9 -15z"/>
<path d="M990 510 c0 -5 7 -10 15 -10 8 0 15 5 15 10 0 6 -7 10 -15 10 -8 0
-15 -4 -15 -10z"/>
<path d="M1310 499 c0 -5 5 -7 10 -4 6 3 10 8 10 11 0 2 -4 4 -10 4 -5 0 -10
-5 -10 -11z"/>
<path d="M1600 500 c0 -5 5 -10 10 -10 6 0 10 5 10 10 0 6 -4 10 -10 10 -5 0
-10 -4 -10 -10z"/>
<path d="M1135 490 c4 -6 11 -8 16 -5 14 9 11 15 -7 15 -8 0 -12 -5 -9 -10z"/>
<path d="M1670 490 c0 -5 5 -10 10 -10 6 0 10 5 10 10 0 6 -4 10 -10 10 -5 0
-10 -4 -10 -10z"/>
<path d="M610 480 c19 -13 30 -13 30 0 0 6 -10 10 -22 10 -19 0 -20 -2 -8 -10z"/>
<path d="M1430 480 c0 -5 5 -10 10 -10 6 0 10 5 10 10 0 6 -4 10 -10 10 -5 0
-10 -4 -10 -10z"/>
<path d="M700 470 c0 -5 5 -10 10 -10 6 0 10 5 10 10 0 6 -4 10 -10 10 -5 0
-10 -4 -10 -10z"/>
<path d="M1570 460 c0 -5 5 -10 11 -10 5 0 7 5 4 10 -3 6 -8 10 -11 10 -2 0
-4 -4 -4 -10z"/>
<path d="M916 451 c-11 -17 5 -39 25 -34 23 6 25 29 3 37 -20 8 -22 8 -28 -3z
m24 -11 c0 -5 -5 -10 -11 -10 -5 0 -7 5 -4 10 3 6 8 10 11 10 2 0 4 -4 4 -10z"/>
<path d="M272 434 c-7 -8 -8 -14 -3 -14 10 0 25 19 20 25 -2 1 -10 -3 -17 -11z"/>
<path d="M656 425 c2 -11 4 -30 4 -42 0 -13 4 -23 9 -23 5 0 9 15 8 34 0 19
-4 33 -8 30 -4 -2 -9 1 -12 8 -2 7 -3 4 -1 -7z"/>
<path d="M830 440 c-13 -8 -12 -10 3 -10 9 0 17 5 17 10 0 12 -1 12 -20 0z"/>
<path d="M1106 443 c-3 -3 -6 -14 -6 -24 0 -10 -10 -19 -25 -23 -22 -6 -37
-37 -17 -36 22 1 78 75 63 84 -4 3 -11 3 -15 -1z"/>
<path d="M1560 436 c0 -2 7 -6 15 -10 8 -3 15 -1 15 4 0 6 -7 10 -15 10 -8 0
-15 -2 -15 -4z"/>
<path d="M750 419 c0 -5 5 -7 10 -4 6 3 10 8 10 11 0 2 -4 4 -10 4 -5 0 -10
-5 -10 -11z"/>
<path d="M1505 400 c3 -5 8 -10 11 -10 2 0 4 5 4 10 0 6 -5 10 -11 10 -5 0 -7
-4 -4 -10z"/>
<path d="M390 389 c0 -5 5 -7 10 -4 6 3 10 8 10 11 0 2 -4 4 -10 4 -5 0 -10
-5 -10 -11z"/>
<path d="M1585 392 c-11 -4 -21 -13 -23 -20 -1 -9 5 -8 23 4 20 13 34 28 23
23 -2 -1 -12 -4 -23 -7z"/>
<path d="M460 374 c0 -8 5 -12 10 -9 6 3 10 10 10 16 0 5 -4 9 -10 9 -5 0 -10
-7 -10 -16z"/>
<path d="M561 374 c-1 -13 22 -64 30 -64 4 0 12 6 18 14 9 11 7 15 -13 20 -13
3 -27 14 -29 24 -3 9 -5 12 -6 6z"/>
<path d="M860 365 c7 -9 15 -13 17 -11 7 7 -7 26 -19 26 -6 0 -6 -6 2 -15z"/>
<path d="M946 371 c-4 -6 0 -11 8 -11 9 0 16 -4 16 -10 0 -16 17 -12 24 6 4
11 2 15 -8 11 -7 -3 -18 -1 -24 5 -6 6 -12 6 -16 -1z"/>
<path d="M380 356 c0 -9 5 -16 10 -16 6 0 10 4 10 9 0 6 -4 13 -10 16 -5 3
-10 -1 -10 -9z"/>
<path d="M1127 356 c-3 -8 -2 -18 4 -22 16 -9 22 2 11 21 -8 15 -10 16 -15 1z"/>
<path d="M6403 358 c-4 -7 -8 -17 -8 -23 0 -5 -9 -11 -20 -12 l-20 -3 20 10
c16 8 12 9 -15 4 -19 -3 -39 -11 -45 -18 -5 -6 -20 -10 -32 -8 -13 2 -23 -1
-23 -7 0 -6 -5 -11 -10 -11 -6 0 -10 7 -8 16 2 10 -3 19 -9 21 -8 3 -13 -4
-13 -14 0 -25 -57 -28 -63 -4 -3 10 -5 8 -6 -6 0 -12 -10 -24 -21 -28 -11 -3
-20 -12 -20 -18 0 -7 -10 -1 -21 13 -11 14 -18 20 -15 14 3 -7 -12 -14 -42
-18 -39 -5 -65 -9 -90 -15 -2 -1 4 -8 12 -17 9 -8 16 -21 16 -29 0 -7 6 -15
12 -17 9 -3 8 -12 -6 -32 -9 -15 -15 -30 -12 -33 3 -3 1 -15 -5 -26 -8 -15 -8
-18 1 -12 7 4 16 1 21 -6 7 -12 9 -12 9 0 0 28 29 -23 30 -51 0 -27 3 -28 46
-28 l47 0 -39 31 c-22 17 -41 32 -42 34 -10 10 174 155 195 155 7 0 13 4 13 8
0 4 25 20 55 36 63 31 143 43 198 28 20 -6 37 -7 37 -2 0 13 31 21 44 11 6 -4
29 -12 51 -15 56 -10 103 -27 155 -56 25 -14 58 -32 74 -40 49 -25 111 -93
139 -152 17 -36 37 -51 37 -28 0 6 -4 10 -9 10 -5 0 -12 12 -16 27 -14 56
-200 212 -253 213 -16 1 -16 2 0 14 15 11 14 14 -15 31 l-32 18 19 -21 c11
-12 14 -22 8 -22 -6 0 -20 12 -31 28 -11 15 -21 21 -21 15 0 -7 -11 -13 -24
-13 -31 0 -57 10 -51 20 2 4 -7 5 -21 2 -14 -2 -32 2 -42 11 -22 20 -78 35
-68 18 5 -8 0 -8 -19 -1 -34 13 -42 13 -52 -2z m-303 -142 c14 -18 14 -18 -7
-6 -12 8 -19 18 -16 23 3 4 6 7 7 5 1 -2 8 -12 16 -22z m-17 -71 c-3 -9 -8
-14 -10 -11 -3 3 -2 9 2 15 9 16 15 13 8 -4z"/>
<path d="M497 344 c-8 -8 1 -24 14 -24 5 0 9 7 9 15 0 15 -12 20 -23 9z"/>
<path d="M6270 341 c0 -5 7 -11 14 -14 10 -4 13 -1 9 9 -6 15 -23 19 -23 5z"/>
<path d="M6620 335 c0 -9 9 -15 21 -15 18 0 19 2 9 15 -7 8 -16 15 -21 15 -5
0 -9 -7 -9 -15z"/>
<path d="M900 330 c0 -5 5 -10 10 -10 6 0 10 5 10 10 0 6 -4 10 -10 10 -5 0
-10 -4 -10 -10z"/>
<path d="M455 310 c-3 -6 1 -7 9 -4 18 7 21 14 7 14 -6 0 -13 -4 -16 -10z"/>
<path d="M6770 310 c0 -5 5 -10 11 -10 5 0 7 5 4 10 -3 6 -8 10 -11 10 -2 0
-4 -4 -4 -10z"/>
<path d="M536 293 c-6 -14 -5 -15 5 -6 7 7 10 15 7 18 -3 3 -9 -2 -12 -12z"/>
<path d="M6090 300 c0 -11 39 -20 45 -10 3 4 -6 10 -20 12 -14 3 -25 2 -25 -2z"/>
<path d="M758 293 c7 -3 16 -2 19 1 4 3 -2 6 -13 5 -11 0 -14 -3 -6 -6z"/>
<path d="M1125 281 c3 -11 1 -22 -5 -26 -12 -7 -14 -25 -2 -25 10 0 29 44 24
58 -2 7 -8 12 -14 12 -5 0 -7 -9 -3 -19z"/>
<path d="M1663 284 c-15 -16 -16 -24 -4 -24 8 0 24 30 19 35 -2 2 -9 -3 -15
-11z"/>
<path d="M1730 285 c0 -8 7 -15 15 -15 9 0 12 6 9 15 -4 8 -10 15 -15 15 -5 0
-9 -7 -9 -15z"/>
<path d="M1020 274 c0 -17 22 -14 28 4 2 7 -3 12 -12 12 -9 0 -16 -7 -16 -16z"/>
<path d="M360 240 c0 -5 5 -10 10 -10 6 0 10 5 10 10 0 6 -4 10 -10 10 -5 0
-10 -4 -10 -10z"/>
<path d="M911 216 c-7 -8 -8 -17 -3 -20 6 -3 15 1 21 8 7 8 8 17 3 20 -6 3
-15 -1 -21 -8z"/>
<path d="M1077 223 c-10 -9 -9 -23 2 -23 5 0 11 7 15 15 5 15 -5 20 -17 8z"/>
<path d="M1220 220 c-8 -5 -12 -11 -9 -14 2 -3 11 -1 19 4 8 5 12 11 9 14 -2
3 -11 1 -19 -4z"/>
<path d="M435 210 c-3 -5 -1 -10 4 -10 6 0 11 5 11 10 0 6 -2 10 -4 10 -3 0
-8 -4 -11 -10z"/>
<path d="M1138 213 c7 -3 16 -2 19 1 4 3 -2 6 -13 5 -11 0 -14 -3 -6 -6z"/>
<path d="M605 190 c-3 -5 -1 -10 4 -10 6 0 11 5 11 10 0 6 -2 10 -4 10 -3 0
-8 -4 -11 -10z"/>
<path d="M810 189 c0 -5 5 -7 10 -4 6 3 10 8 10 11 0 2 -4 4 -10 4 -5 0 -10
-5 -10 -11z"/>
<path d="M1710 190 c0 -5 7 -10 16 -10 8 0 12 5 9 10 -3 6 -10 10 -16 10 -5 0
-9 -4 -9 -10z"/>
<path d="M1120 178 c0 -10 -5 -18 -10 -18 -6 0 -8 -11 -4 -27 9 -36 13 -40 24
-23 6 9 5 17 -2 21 -9 6 -9 11 0 21 7 9 8 19 2 28 -8 13 -10 12 -10 -2z"/>
<path d="M500 150 c0 -5 5 -10 10 -10 6 0 10 5 10 10 0 6 -4 10 -10 10 -5 0
-10 -4 -10 -10z"/>
<path d="M540 140 c0 -5 4 -10 9 -10 6 0 13 5 16 10 3 6 -1 10 -9 10 -9 0 -16
-4 -16 -10z"/>
<path d="M1020 143 c0 -5 14 -8 30 -9 17 -1 30 3 30 7 0 5 -13 9 -30 9 -16 0
-30 -3 -30 -7z"/>
<path d="M396 121 c-4 -5 -2 -12 3 -15 5 -4 12 -2 15 3 4 5 2 12 -3 15 -5 4
-12 2 -15 -3z"/>
<path d="M1525 120 c-3 -5 -1 -10 4 -10 6 0 11 5 11 10 0 6 -2 10 -4 10 -3 0
-8 -4 -11 -10z"/>
<path d="M926 111 c-4 -7 -5 -15 -2 -18 9 -9 19 4 14 18 -4 11 -6 11 -12 0z"/>
<path d="M1180 110 c0 -5 7 -7 15 -4 8 4 15 8 15 10 0 2 -7 4 -15 4 -8 0 -15
-4 -15 -10z"/>
<path d="M1450 109 c0 -5 5 -7 10 -4 6 3 10 8 10 11 0 2 -4 4 -10 4 -5 0 -10
-5 -10 -11z"/>
<path d="M6482 81 c-20 -56 -16 -81 12 -81 22 0 25 4 24 40 0 22 -4 40 -8 40
-5 0 -10 8 -12 18 -3 12 -7 7 -16 -17z"/>
<path d="M985 90 c-3 -5 -2 -10 4 -10 5 0 13 5 16 10 3 6 2 10 -4 10 -5 0 -13
-4 -16 -10z"/>
<path d="M6406 76 c-9 -35 9 -76 34 -76 18 0 20 4 14 43 -10 58 -37 77 -48 33z"/>
<path d="M1271 74 c0 -11 3 -14 6 -6 3 7 2 16 -1 19 -3 4 -6 -2 -5 -13z"/>
<path d="M5630 70 c-14 -25 -9 -25 13 0 9 11 13 20 7 20 -5 0 -14 -9 -20 -20z"/>
<path d="M6548 51 c-23 -47 -22 -51 2 -51 17 0 20 7 20 45 0 25 -1 45 -2 45
-2 0 -11 -18 -20 -39z"/>
<path d="M302 66 c7 -8 15 -12 17 -11 5 6 -10 25 -20 25 -5 0 -4 -6 3 -14z"/>
<path d="M1033 59 c-36 -23 -45 -36 -13 -19 16 9 22 8 26 -5 10 -25 21 -17 20
15 -1 16 -1 30 -1 30 0 0 -15 -10 -32 -21z"/>
<path d="M4874 64 c3 -9 6 -27 6 -40 0 -21 5 -24 36 -24 l35 0 -33 40 c-34 41
-55 52 -44 24z"/>
<path d="M6344 60 c3 -14 6 -33 6 -42 0 -12 8 -18 25 -18 32 0 31 7 -7 50 -28
32 -30 33 -24 10z"/>
<path d="M1710 50 c8 -5 20 -10 25 -10 6 0 3 5 -5 10 -8 5 -19 10 -25 10 -5 0
-3 -5 5 -10z"/>
<path d="M6596 44 c-10 -26 -7 -44 8 -44 17 0 28 24 20 45 -8 19 -20 19 -28
-1z"/>
<path d="M6938 53 c-22 -3 -28 -10 -28 -29 0 -21 4 -24 39 -24 l40 0 -10 30
c-6 17 -12 29 -12 29 -1 -1 -14 -4 -29 -6z"/>
<path d="M780 36 c0 -2 7 -7 16 -10 8 -3 12 -2 9 4 -6 10 -25 14 -25 6z"/>
<path d="M5592 20 c-7 -11 -8 -20 -3 -20 9 0 24 30 18 36 -1 2 -8 -6 -15 -16z"/>
<path d="M5967 23 c-14 -13 -6 -23 18 -23 18 0 23 4 19 15 -6 16 -26 20 -37 8z"/>
<path d="M6655 19 c-4 -6 -5 -13 -2 -16 7 -7 27 6 27 18 0 12 -17 12 -25 -2z"/>
<path d="M560 10 c0 -5 5 -10 10 -10 6 0 10 5 10 10 0 6 -4 10 -10 10 -5 0
-10 -4 -10 -10z"/>
<path d="M940 8 c0 -11 48 -10 54 1 3 4 -8 8 -24 7 -17 -1 -30 -4 -30 -8z"/>
</g>
</svg>
